<?xml version="1.0" encoding="UTF-8" standalone="no"?>
<svg
   xmlns:dc="http://purl.org/dc/elements/1.1/"
   xmlns:cc="http://creativecommons.org/ns#"
   xmlns:rdf="http://www.w3.org/1999/02/22-rdf-syntax-ns#"
   xmlns:svg="http://www.w3.org/2000/svg"
   xmlns="http://www.w3.org/2000/svg"
   xmlns:sodipodi="http://sodipodi.sourceforge.net/DTD/sodipodi-0.dtd"
   xmlns:inkscape="http://www.inkscape.org/namespaces/inkscape"
   width="256px"
   height="256px"
   viewBox="0 0 256 250"
   version="1.1"
   preserveAspectRatio="xMidYMid"
   id="svg6"
   sodipodi:docname="github-icon.svg"
   inkscape:version="1.0.2 (e86c870879, 2021-01-15)">
  <metadata
     id="metadata12">
    <rdf:RDF>
      <cc:Work
         rdf:about="">
        <dc:format>image/svg+xml</dc:format>
        <dc:type
           rdf:resource="http://purl.org/dc/dcmitype/StillImage" />
        <dc:title></dc:title>
      </cc:Work>
    </rdf:RDF>
  </metadata>
  <defs
     id="defs10" />
  <sodipodi:namedview
     pagecolor="#ffffff"
     bordercolor="#666666"
     borderopacity="1"
     objecttolerance="10"
     gridtolerance="10"
     guidetolerance="10"
     inkscape:pageopacity="0"
     inkscape:pageshadow="2"
     inkscape:window-width="1860"
     inkscape:window-height="1016"
     id="namedview8"
     showgrid="false"
     inkscape:zoom="2.0522865"
     inkscape:cx="-1.5472795"
     inkscape:cy="81.34997"
     inkscape:window-x="0"
     inkscape:window-y="0"
     inkscape:window-maximized="1"
     inkscape:current-layer="layer3" />
  <g
     inkscape:groupmode="layer"
     id="layer1"
     inkscape:label="Insta"
     style="display:inline">
    <circle
       style="fill:#161614;fill-opacity:1;fill-rule:evenodd"
       id="path40"
       cx="128"
       cy="125"
       r="128" />
  </g>
  <g
     inkscape:groupmode="layer"
     id="layer3"
     inkscape:label="InstaMain"
     style="display:inline">
    <path
       d="m 129.99985,61.414707 c 21.36101,0 23.89102,0.0813 32.3267,0.466178 7.79992,0.355986 12.03586,1.659254 14.85516,2.75452 3.73388,1.451251 6.39916,3.185132 9.19846,5.984427 2.7993,2.799296 4.53317,5.464581 5.98411,9.198458 1.09559,2.819301 2.39886,7.055241 2.75483,14.854848 0.38489,8.436002 0.46619,10.966002 0.46619,32.327022 0,21.36102 -0.0813,23.89102 -0.46619,32.3267 -0.35597,7.79993 -1.65924,12.03587 -2.75483,14.85517 -1.45094,3.73387 -3.18481,6.39916 -5.98411,9.19845 -2.7993,2.79929 -5.46458,4.53318 -9.19846,5.98411 -2.8193,1.09558 -7.05524,2.39885 -14.85516,2.75484 -8.43442,0.38489 -10.96442,0.46618 -32.3267,0.46618 -21.3623,0 -23.8923,-0.0813 -32.326718,-0.46618 -7.799918,-0.35599 -12.035856,-1.65926 -14.854843,-2.75484 -3.734194,-1.45093 -6.399476,-3.18482 -9.198775,-5.98411 -2.799294,-2.79929 -4.533175,-5.46458 -5.984106,-9.19846 -1.095588,-2.81929 -2.398857,-7.05524 -2.754837,-14.85485 -0.384888,-8.43599 -0.466183,-10.966 -0.466183,-32.32701 0,-21.36102 0.0813,-23.89102 0.466183,-32.326711 0.35598,-7.799918 1.659249,-12.035858 2.754837,-14.855159 1.450931,-3.733877 3.184812,-6.399162 5.984106,-9.198458 2.799299,-2.799295 5.464581,-4.533176 9.198775,-5.984427 2.818987,-1.095266 7.054925,-2.398534 14.854531,-2.75452 8.436,-0.384883 10.966,-0.466178 32.32703,-0.466178 m 0,-14.414707 c -21.72685,0 -24.4509,0.09209 -32.983749,0.481422 -8.515381,0.388694 -14.33055,1.740867 -19.419456,3.718633 -5.260706,2.044455 -9.722119,4.779921 -14.16955,9.227356 -4.447437,4.447435 -7.182899,8.908842 -9.227356,14.169549 -1.977768,5.088907 -3.329942,10.904075 -3.718635,19.419459 C 50.091775,102.54896 50,105.27332 50,127.00016 c 0,21.72684 0.09177,24.4512 0.481104,32.98373 0.388693,8.51539 1.740867,14.33055 3.718635,19.41946 2.044457,5.2604 4.779919,9.72211 9.227356,14.16955 4.447431,4.44744 8.908844,7.1829 14.16955,9.22736 5.088906,1.97777 10.904075,3.32994 19.419456,3.71862 C 105.54895,206.90822 108.273,207 129.99985,207 c 21.72684,0 24.4512,-0.0918 32.98373,-0.48112 8.51539,-0.38868 14.33055,-1.74085 19.41946,-3.71862 5.26071,-2.04446 9.72212,-4.77992 14.16955,-9.22736 4.44744,-4.44744 7.18289,-8.90884 9.22736,-14.16955 1.97776,-5.08891 3.32993,-10.90407 3.71863,-19.41946 C 209.90791,151.45136 210,148.727 210,127.00016 c 0,-21.72685 -0.0921,-24.4512 -0.48142,-32.983741 -0.3887,-8.515384 -1.74087,-14.330552 -3.71863,-19.419459 -2.04447,-5.260707 -4.77992,-9.722114 -9.22736,-14.169549 -4.44743,-4.447435 -8.90884,-7.182901 -14.16955,-9.227356 -5.08891,-1.977766 -10.90407,-3.329939 -19.41946,-3.718633 C 154.45105,47.092092 151.72669,47 129.99985,47 Z m 0,38.918944 c -22.68844,0 -41.081224,18.392786 -41.081224,41.081216 0,22.68842 18.392784,41.08121 41.081224,41.08121 22.68842,0 41.08121,-18.39279 41.08121,-41.08121 0,-22.68843 -18.39279,-41.081216 -41.08121,-41.081216 z m 0,67.748026 c -14.72751,0 -26.66684,-11.93931 -26.66684,-26.66681 0,-14.7275 11.93933,-26.66683 26.66684,-26.66683 14.72749,0 26.66682,11.93933 26.66682,26.66683 0,14.7275 -11.93933,26.66681 -26.66682,26.66681 z m 52.30411,-69.371078 c 0,5.30199 -4.29786,9.600172 -9.59985,9.600172 -5.30199,0 -9.60017,-4.298182 -9.60017,-9.600172 0,-5.30199 4.29818,-9.599854 9.60017,-9.599854 5.30199,0 9.59985,4.297864 9.59985,9.599854 z"
       fill="#0a0a08"
       id="path866"
       style="fill:#ffffff;stroke-width:0.625" />
  </g>
  <g
     inkscape:groupmode="layer"
     id="layer4"
     inkscape:label="Github"
     style="display:none">
    <path
       d="M 128.00106,0 C 57.31729,0 0,57.306694 0,128.00106 c 0,56.55422 36.6762,104.53448 87.53494,121.45984 6.39708,1.18488 8.74565,-2.77674 8.74565,-6.15757 0,-3.05229 -0.1187,-13.13543 -0.17381,-23.83115 -35.61002,7.74305 -43.12416,-15.10247 -43.12416,-15.10247 -5.82266,-14.79511 -14.21221,-18.72917 -14.21221,-18.72917 -11.61353,-7.94443 0.87541,-7.78122 0.87541,-7.78122 12.85352,0.90297 19.62154,13.19055 19.62154,13.19055 11.41641,19.56855 29.94421,13.91122 37.24851,10.64061 1.14884,-8.27297 4.46609,-13.9197 8.12671,-17.11612 -28.43078,-3.2367 -58.31776,-14.21222 -58.31776,-63.25866 0,-13.97481 5.00024,-25.393332 13.18842,-34.357306 -1.32901,-3.223979 -5.71032,-16.242832 1.23999,-33.87403 0,0 10.74872,-3.440183 35.20941,13.120595 10.21033,-2.836083 21.16041,-4.258364 32.03842,-4.307116 10.87801,0.04875 21.83657,1.471033 32.06597,4.307116 24.43102,-16.560778 35.1649,-13.120595 35.1649,-13.120595 6.96727,17.631198 2.58384,30.650051 1.25483,33.87403 8.20726,8.963974 13.17358,20.382496 13.17358,34.357306 0,49.16302 -29.94421,59.98805 -58.44706,63.15691 4.59115,3.97222 8.68206,11.76191 8.68206,23.70398 0,17.12673 -0.14837,30.91077 -0.14837,35.12674 0,3.40627 2.30405,7.39756 8.79228,6.14061 C 219.37043,232.49951 256,184.5362 256,128.00106 256,57.306694 198.69119,0 128.00106,0 Z m -80.0605,182.34021 c -0.28191,0.63589 -1.28239,0.82666 -2.19383,0.39002 -0.92841,-0.41757 -1.44984,-1.28451 -1.14885,-1.92252 0.27555,-0.65497 1.27814,-0.83726 2.20443,-0.39849 0.93052,0.41757 1.46043,1.29298 1.13825,1.93099 z m 6.29623,5.61804 c -0.61046,0.56595 -1.80382,0.30311 -2.61352,-0.59138 -0.83726,-0.89237 -0.99412,-2.08573 -0.37518,-2.66015 0.62953,-0.56595 1.78686,-0.30099 2.62624,0.59138 0.83726,0.90297 1.00047,2.08785 0.36246,2.66015 z m 4.31945,7.1881 c -0.78427,0.54475 -2.06665,0.0339 -2.8594,-1.10434 -0.78427,-1.13825 -0.78427,-2.5033 0.017,-3.05017 0.79487,-0.54686 2.05817,-0.0551 2.86152,1.07466 0.78215,1.15733 0.78215,2.52238 -0.0191,3.07985 z m 7.30512,8.32482 c -0.7016,0.77368 -2.19595,0.56595 -3.28969,-0.48963 -1.11917,-1.03227 -1.43076,-2.49694 -0.72704,-3.27061 0.71008,-0.77579 2.21291,-0.55747 3.31513,0.48963 1.11069,1.03015 1.44983,2.50542 0.7016,3.27061 z m 9.44115,2.81037 c -0.30946,1.00259 -1.7487,1.45832 -3.19854,1.03227 -1.44772,-0.43877 -2.3952,-1.61305 -2.10269,-2.62624 0.30099,-1.00895 1.74659,-1.48375 3.20703,-1.02803 1.44559,0.43665 2.39519,1.60245 2.0942,2.622 z m 10.74444,1.19209 c 0.036,1.05558 -1.19336,1.93099 -2.71527,1.95007 -1.53038,0.0339 -2.76825,-0.8203 -2.78521,-1.85893 0,-1.06618 1.20184,-1.93311 2.73222,-1.95855 1.5219,-0.0297 2.76826,0.81818 2.76826,1.86741 z m 10.5552,-0.40461 c 0.18229,1.03015 -0.87542,2.08785 -2.38672,2.36976 -1.48587,0.27132 -2.86152,-0.36457 -3.05017,-1.38624 -0.18441,-1.05558 0.89237,-2.11329 2.37612,-2.38672 1.51343,-0.26284 2.86788,0.3561 3.06077,1.4032 z"
       fill="#161614"
       id="path881" />
  </g>
</svg>
