<?xml version="1.0" encoding="UTF-8" standalone="no"?>
<!-- Created with Inkscape (http://www.inkscape.org/) -->

<svg
   version="1.1"
   id="svg2"
   xml:space="preserve"
   width="400"
   height="400"
   viewBox="0 0 400 400"
   sodipodi:docname="anagrama_tile.svg"
   inkscape:version="1.2 (1:1.2.1+202207142221+cd75a1ee6d)"
   xmlns:inkscape="http://www.inkscape.org/namespaces/inkscape"
   xmlns:sodipodi="http://sodipodi.sourceforge.net/DTD/sodipodi-0.dtd"
   xmlns:xlink="http://www.w3.org/1999/xlink"
   xmlns="http://www.w3.org/2000/svg"
   xmlns:svg="http://www.w3.org/2000/svg"><defs
     id="defs6" /><sodipodi:namedview
     id="namedview4"
     pagecolor="#ffffff"
     bordercolor="#666666"
     borderopacity="1.0"
     inkscape:pageshadow="2"
     inkscape:pageopacity="0.0"
     inkscape:pagecheckerboard="0"
     showgrid="false"
     height="4042px"
     inkscape:zoom="7.3668099"
     inkscape:cx="132.07888"
     inkscape:cy="21.786907"
     inkscape:window-width="3376"
     inkscape:window-height="1376"
     inkscape:window-x="0"
     inkscape:window-y="0"
     inkscape:window-maximized="1"
     inkscape:current-layer="g8"
     inkscape:showpageshadow="2"
     inkscape:deskcolor="#d1d1d1" /><rect
     style="display:inline;fill:#eae9e5;fill-opacity:1;stroke:none;stroke-width:0.138889"
     id="rect15731"
     width="400"
     height="400"
     x="0"
     y="0"
     inkscape:label="bg" /><g
     id="g8"
     inkscape:groupmode="layer"
     inkscape:label="fg"
     transform="matrix(1.3333333,0,0,-1.3333333,0.78842081,224.56266)"
     style="display:inline"><use
       x="0"
       y="0"
       xlink:href="#g18707"
       id="use2968"
       transform="translate(150.00014,-150.00001)"
       inkscape:label="clone" /><g
       id="g18707"
       style="display:inline;opacity:1;fill:#3b6967;fill-opacity:0.05"
       transform="matrix(0.66666668,0,0,-0.66666668,-0.06570173,168.42023)"
       inkscape:label="logo"><path
         d="m 83.994798,43.514671 c 0,-18.623999 4.322933,-34.7279989 10.6036,-42.4293321 -0.9432,-1.08799995 0,0 -0.9432,-1.08799995 C 78.599465,5.1986722 67.524532,22.706672 67.524532,43.514671 c 0,20.594666 10.848399,37.955999 25.667199,43.353332 1.183333,-1.201333 0,0 1.183333,-1.201333 -6.16,-7.806666 -10.380266,-23.749333 -10.380266,-42.151999"
         style="fill:#3b6967;fill-opacity:0.05;fill-rule:nonzero;stroke:none;stroke-width:0.133333"
         id="path12" /><path
         d="m 122.22706,43.514671 c 0,-18.623999 -4.32293,-34.7279989 -10.6036,-42.4293321 0.94267,-1.08799995 0,0 0.94267,-1.08799995 15.05573,5.20133325 26.1312,22.70933305 26.1312,43.51733205 0,20.594666 -10.84893,37.955999 -25.6676,43.353332 -1.18333,-1.201333 0,0 -1.18333,-1.201333 6.15986,-7.806666 10.38066,-23.749333 10.38066,-42.151999"
         style="fill:#3b6967;fill-opacity:0.05;fill-rule:nonzero;stroke:none;stroke-width:0.133333"
         id="path14" /><path
         d="m 215.76533,89.69867 c -4.79334,-10.186666 -12.33067,-17.781333 -21.208,-20.925333 l -0.89867,0.898667 c 3.59867,4.294666 6.604,11.314666 8.624,20.026666 h 13.48267"
         style="fill:#3b6967;fill-opacity:0.05;fill-rule:nonzero;stroke:none;stroke-width:0.133333"
         id="path16" /><path
         d="m 208.22533,146.02827 10.396,8.16507 h 2.604 v -41.8568 h -16.228 c -0.52667,18.7756 -5.028,34.69426 -11.348,42.22866 l 0.91333,0.912 c 5.08267,-1.8036 9.72267,-5.07186 13.66267,-9.44893"
         style="fill:#3b6967;fill-opacity:0.05;fill-rule:nonzero;stroke:none;stroke-width:0.133333"
         id="path18" /><path
         d="m 166.17866,112.1236 c 0,-18.623463 4.32267,-34.727596 10.604,-42.430263 -0.944,-1.088 0,0 -0.944,-1.088 C 160.784,73.808004 149.708,91.31467 149.708,112.1236 c 0,20.5952 10.84933,37.9552 25.668,43.3536 1.18266,-1.20106 0,0 1.18266,-1.20106 -6.16,-7.80827 -10.38,-23.75 -10.38,-42.15254"
         style="fill:#3b6967;fill-opacity:0.05;fill-rule:nonzero;stroke:none;stroke-width:0.133333"
         id="path20" /><path
         d="m 83.932798,181.20693 c 0,-18.624 4.3224,-34.72813 10.6036,-42.43079 -0.9432,-1.088 0,0 -0.9432,-1.088 -15.055733,5.20253 -26.130666,22.70933 -26.130666,43.51879 0,20.59427 10.848399,37.95463 25.667199,43.35307 1.183333,-1.20156 0,0 1.183333,-1.20156 -6.16,-7.80781 -10.380266,-23.74897 -10.380266,-42.15151"
         style="fill:#3b6967;fill-opacity:0.05;fill-rule:nonzero;stroke:none;stroke-width:0.133333"
         id="path22" /><path
         d="m 122.16453,181.20693 c 0,-18.624 -4.3224,-34.72813 -10.60307,-42.43079 0.94267,-1.088 0,0 0.94267,-1.088 15.05573,5.20253 26.13053,22.70933 26.13053,43.51879 0,20.59427 -10.84826,37.95463 -25.66693,43.35307 -1.18333,-1.20156 0,0 -1.18333,-1.20156 6.15986,-7.80781 10.38013,-23.74897 10.38013,-42.15151"
         style="fill:#3b6967;fill-opacity:0.05;fill-rule:nonzero;stroke:none;stroke-width:0.133333"
         id="path24" /><path
         d="M 5.7078132,68.674671 H 0 v 2.137333 c 3.1515599,0 5.7078132,2.554666 5.7078132,5.706666 v 36.05747 35.63173 c 0,3.15213 -2.5562533,5.7068 -5.7078132,5.7068 v 2.136 H 5.7078132 22.689599 V 112.57614 68.674671 H 5.7078132"
         style="fill:#3b6967;fill-opacity:0.05;fill-rule:nonzero;stroke:none;stroke-width:0.133333"
         id="path26" /><path
         d="m 30.127599,153.67974 v 2.37093 h 22.838533 v -22.83853 h -2.583867 c -0.4296,11.04946 -9.234933,19.92493 -20.254666,20.4676"
         style="fill:#3b6967;fill-opacity:0.05;fill-rule:nonzero;stroke:none;stroke-width:0.133333"
         id="path28" /></g></g></svg>
