<?xml version="1.0" encoding="UTF-8" standalone="no"?>
<!-- Created with Inkscape (http://www.inkscape.org/) -->

<svg
   version="1.1"
   id="svg2"
   xml:space="preserve"
   width="942.5835"
   height="671.84094"
   viewBox="0 0 942.5835 671.84094"
   sodipodi:docname="web_mock.svg"
   inkscape:version="1.2 (1:1.2.1+202207142221+cd75a1ee6d)"
   xmlns:inkscape="http://www.inkscape.org/namespaces/inkscape"
   xmlns:sodipodi="http://sodipodi.sourceforge.net/DTD/sodipodi-0.dtd"
   xmlns="http://www.w3.org/2000/svg"
   xmlns:svg="http://www.w3.org/2000/svg"><defs
     id="defs6" /><sodipodi:namedview
     id="namedview4"
     pagecolor="#ffffff"
     bordercolor="#666666"
     borderopacity="1.0"
     inkscape:pageshadow="2"
     inkscape:pageopacity="0.0"
     inkscape:pagecheckerboard="0"
     showgrid="false"
     height="4042px"
     inkscape:zoom="0.30427315"
     inkscape:cx="2039.2861"
     inkscape:cy="869.28471"
     inkscape:window-width="1858"
     inkscape:window-height="1016"
     inkscape:window-x="0"
     inkscape:window-y="0"
     inkscape:window-maximized="1"
     inkscape:current-layer="g9012"
     inkscape:showpageshadow="2"
     inkscape:deskcolor="#d1d1d1"
     showguides="true" /><g
     inkscape:groupmode="layer"
     id="g9012"
     inkscape:label="popup_form"
     style="display:inline"
     transform="translate(-592.04004,-662)"><path
       style="display:inline;fill:#ffffff;stroke-width:1.33333"
       d="m 1005.2321,1333.2396 c -6.15564,0.34 -14.02059,0.103 -17.4777,-0.5268 -3.4571,-0.6296 -9.08445,-2.5426 -12.50521,-4.251 -3.42075,-1.7084 -8.23741,-5.4636 -10.70368,-8.3449 -2.46627,-2.8813 -5.64044,-8.3292 -7.05371,-12.1065 -1.41328,-3.7773 -3.29109,-11.8023 -4.17293,-17.8332 -1.04681,-7.1591 -1.37647,-20.7792 -0.94971,-39.238 0.55406,-23.9649 1.08428,-29.6097 3.48006,-37.0488 1.55452,-4.8269 4.55713,-11.3532 6.67245,-14.5028 2.11533,-3.1497 6.41556,-7.4523 9.55608,-9.5615 3.14051,-2.1092 8.16679,-4.5574 11.16949,-5.4403 3.00272,-0.883 11.48534,-1.6245 18.85026,-1.6478 12.5232,-0.04 13.9754,0.2454 22.4144,4.3999 6.2405,3.0722 10.2431,6.1258 12.9775,9.9005 2.1746,3.0019 4.7854,8.4964 5.8018,12.2098 1.0164,3.7135 2.1781,10.8018 2.5816,15.7518 l 0.7336,9 h -14.4324 -14.4324 l -0.9153,-8.9346 c -0.5035,-4.914 -1.8673,-10.9405 -3.0306,-13.3921 -1.1634,-2.4516 -3.8045,-5.331 -5.8692,-6.3987 -2.0647,-1.0677 -6.23,-1.9413 -9.25612,-1.9413 -4.26168,0 -6.35244,0.8503 -9.27386,3.7717 -2.07445,2.0745 -4.46061,6.1245 -5.30257,9 -0.84196,2.8756 -2.20559,13.8296 -3.03029,24.3423 -1.08847,13.8748 -1.10643,24.1078 -0.0655,37.3333 0.86348,10.9711 2.34581,20.4837 3.72603,23.911 1.26064,3.1304 3.80336,6.8804 5.65046,8.3333 2.27271,1.7878 5.39712,2.6417 9.66535,2.6417 4.3014,0 7.392,-0.8534 9.7187,-2.6835 1.8764,-1.476 4.347,-5.526 5.4903,-9 1.1433,-3.4741 2.4752,-10.6665 2.9597,-15.9831 l 0.881,-9.6667 h 14.2515 14.2516 L 1047.105,1283 c -0.2683,4.2166 -1.1234,11.2466 -1.9003,15.6222 -0.7769,4.3756 -2.8032,10.6756 -4.5029,14 -1.6996,3.3244 -5.0939,7.9637 -7.5427,10.3095 -2.4488,2.3457 -7.216,5.4856 -10.5937,6.9774 -3.9416,1.7409 -10.1501,2.9338 -17.3333,3.3305 z m 181.4747,0.5935 c -3.3,-0.081 -8.7,-0.6052 -12,-1.1656 -3.3,-0.5603 -8.4,-2.0201 -11.3334,-3.2441 -2.9333,-1.2239 -7.2434,-4.0739 -9.578,-6.3333 -2.3346,-2.2595 -5.6346,-7.1791 -7.3333,-10.9325 -3.0627,-6.767 -3.0919,-7.3308 -3.4734,-67.1576 l -0.3847,-60.3334 h 13.9739 13.974 l 0.4107,57.6667 c 0.3714,52.1381 0.6367,58.0799 2.7667,61.9774 1.2958,2.3709 4.116,5.2209 6.2672,6.3334 2.1511,1.1124 6.0708,2.0225 8.7103,2.0225 2.6395,0 6.4883,-0.8735 8.553,-1.9412 2.0647,-1.0677 4.8849,-4.2177 6.2672,-7 2.3219,-4.6738 2.5453,-9.3959 2.9361,-62.0588 l 0.4229,-57 h 13.9623 13.9622 l -0.3852,59.6667 c -0.3812,59.0506 -0.4169,59.7355 -3.4535,66.3333 -1.6876,3.6667 -4.9876,8.6693 -7.3333,11.1169 -2.3458,2.4476 -6.4426,5.5728 -9.104,6.9449 -2.6615,1.3722 -8.6615,3.115 -13.3334,3.8731 -4.6719,0.7581 -11.1943,1.3123 -14.4943,1.2316 z m -88.6667,-2.4998 h -40.6667 V 1258 1184.6666 h 14.6667 14.6666 V 1246 v 61.3333 h 26.0001 26 v 12 12 z m 180.3333,-0.2842 -31.6666,0.53 v -73.5949 -73.5949 l 31.6666,0.591 c 25.0338,0.4672 32.8721,1.049 37.4214,2.7773 3.1651,1.2024 7.5317,3.4515 9.7035,4.998 2.1718,1.5465 5.5579,5.9091 7.5245,9.6947 3.0411,5.8537 3.5839,8.5831 3.6299,18.2519 0.046,9.6271 -0.4667,12.385 -3.3443,18 -2.5529,4.9813 -5.176,7.6996 -10.5431,10.9258 -5.7694,3.468 -6.6551,4.44 -4.6016,5.0496 1.3987,0.4152 5.243,2.1421 8.543,3.8375 4.0354,2.0733 7.3098,5.1881 10,9.5125 3.7872,6.0877 4,7.1805 4,20.5345 0,11.5479 -0.5109,15.209 -2.8188,20.1977 -1.5503,3.3512 -5.0778,8.2871 -7.8389,10.9686 -2.7611,2.6816 -8.3926,6.2064 -12.5145,7.8331 -6.8246,2.6932 -10.3246,3.0049 -39.1611,3.4876 z m 7.3334,-21.0784 c 6.5971,-0.02 11.438,-0.8335 15.2449,-2.5619 3.5226,-1.5993 6.4379,-4.1681 7.9112,-6.9707 1.5197,-2.891 2.3434,-7.4849 2.3629,-13.1783 0.022,-6.3126 -0.6943,-9.9739 -2.5779,-13.1825 -1.4343,-2.4433 -4.6984,-5.5603 -7.2537,-6.9265 -3.3873,-1.8112 -7.4508,-2.4842 -15,-2.4842 h -10.3541 V 1287.3333 1310 l 9.6667,-0.029 z m -0.9572,-65.3041 c 4.7902,0 10.7771,-0.8639 13.3041,-1.9197 2.5271,-1.0559 5.8056,-3.9059 7.2856,-6.3334 1.7191,-2.8196 2.6926,-6.7483 2.6958,-10.8787 0,-3.5558 -0.9414,-8.4595 -2.098,-10.897 -1.1986,-2.5258 -4.009,-5.3362 -6.5349,-6.5348 -2.7426,-1.3015 -8.0395,-2.103 -13.8969,-2.103 h -9.4652 v 19.3333 19.3333 z M 660.55834,1330 c -17.88506,0 -32.51572,-0.45 -32.5126,-1 0.003,-0.55 3.3023,-26.8 7.33149,-58.3334 4.0292,-31.5333 7.32664,-57.7833 7.32765,-58.3333 10e-4,-0.55 -11.39816,-1 -25.33149,-1 h -25.33333 v -38 -38 h 30 c 16.5,0 30.00136,-0.45 30.00301,-1 0.001,-0.55 2.08945,-17.2 4.63955,-37 2.5501,-19.8 5.00149,-38.25 5.44753,-41 l 0.81097,-5 h -24.78386 -24.78387 v -38 -37.99997 h 29.33333 c 25.58176,0 29.33334,-0.26381 29.33334,-2.06275 0,-1.1345 2.99992,-25.8845 6.66648,-55 3.66656,-29.11549 6.99376,-54.88725 7.39374,-57.27058 l 0.72728,-4.33334 h 32.33015 32.33015 l -6.99002,57 c -3.8445,31.35 -7.02026,58.05 -7.05724,59.33334 -0.0623,2.16157 2.37779,2.33333 33.14892,2.33333 h 33.21614 l 0.77232,-5 c 0.42477,-2.75 3.77752,-28.76617 7.45053,-57.81371 3.67301,-29.04754 6.67821,-53.49754 6.67821,-54.33333 0,-1.09593 9.10807,-1.51963 32.66667,-1.51963 30.25483,0 32.66667,0.17274 32.66667,2.33947 0,1.28669 -2.99255,26.03669 -6.65011,55 -3.65755,28.96329 -6.98473,54.61053 -7.39375,56.99387 l -0.74365,4.33333 h 25.39376 25.39375 v 37.99997 38 H 890.33883 860.6376 L 855.58611,1091 c -2.77832,21.8166 -5.3532,40.7166 -5.72195,42 -0.62184,2.1641 1.17363,2.3333 24.75271,2.3333 h 25.42319 v 37.9745 37.9745 l -29.63127,0.3588 -29.63127,0.3589 -7.41928,58.6666 -7.41928,58.6667 -32.92076,0.3566 -32.92077,0.3565 0.64709,-3.6899 c 0.35591,-2.0294 3.64299,-27.585 7.30466,-56.7902 3.66165,-29.2052 6.65754,-54.2552 6.65754,-55.6667 0,-2.4643 -1.32316,-2.5663 -33.30793,-2.5663 h -33.30793 l -0.62903,3 c -0.34597,1.65 -3.38541,26.4 -6.75432,55 -3.36889,28.6 -6.46404,53.95 -6.87808,56.3333 L 693.07662,1330 Z m 90.04204,-194.6667 h 33.31884 L 784.66347,1131 c 0.40933,-2.3834 2.83652,-20.488 5.39375,-40.2325 2.55722,-19.7445 4.6495,-36.7048 4.6495,-37.6896 0,-1.4604 -6.19686,-1.7247 -33.62072,-1.4341 l -33.6207,0.3562 -4.28439,35.3333 c -2.35641,19.4333 -4.64776,38.1833 -5.09188,41.6667 l -0.80749,6.3333 z m 340.77302,33.969 c -5.8667,0.3075 -13.4952,0.043 -16.9523,-0.5876 -3.4571,-0.6307 -9.0845,-2.5445 -12.5052,-4.2529 -3.4208,-1.7084 -8.2375,-5.4636 -10.7037,-8.3449 -2.4663,-2.8813 -5.6405,-8.3292 -7.0537,-12.1065 -1.4133,-3.7773 -3.2911,-11.8022 -4.173,-17.8332 -1.0468,-7.1591 -1.3764,-20.7792 -0.9497,-39.238 0.5541,-23.9649 1.0843,-29.6097 3.4801,-37.0488 1.5545,-4.8269 4.5571,-11.3532 6.6724,-14.5028 2.1154,-3.1497 6.4156,-7.4523 9.5561,-9.5615 3.1405,-2.1092 8.1668,-4.5513 11.1695,-5.427 3.0027,-0.8756 11.1595,-1.6093 18.1262,-1.6304 8.7602,-0.027 14.7928,0.6936 19.5607,2.3351 3.7917,1.3054 9.5441,4.7061 12.7831,7.5572 3.6759,3.2356 7.2291,8.1699 9.4549,13.1297 1.9613,4.3702 4.1608,10.8552 4.8877,14.4109 0.727,3.5558 1.699,16.365 2.16,28.465 0.503,13.2032 0.2487,27.3315 -0.636,35.3334 -0.8107,7.3333 -2.3834,16.3835 -3.4947,20.1115 -1.1113,3.728 -3.7507,9.3543 -5.8653,12.5028 -2.1146,3.1486 -6.403,7.4428 -9.5298,9.5428 -3.1268,2.1 -7.8531,4.441 -10.5029,5.2021 -2.6497,0.7612 -9.6177,1.6356 -15.4844,1.9431 z m -2.8667,-20.6406 c 5.5456,0 7.0955,-0.6238 10.8806,-4.4089 2.4276,-2.4276 5.2176,-7.0776 6.2,-10.3334 1.2912,-4.279 1.7861,-15.3414 1.7861,-39.9194 0,-24.5781 -0.4949,-35.6404 -1.7861,-39.9195 -0.9824,-3.2557 -3.7724,-7.9057 -6.2,-10.3333 -3.7306,-3.7306 -5.3736,-4.4139 -10.6135,-4.4139 -3.4097,0 -8.0223,0.9426 -10.2501,2.0947 -2.5746,1.3313 -5.0315,4.3121 -6.7424,8.1797 -1.9524,4.4137 -3.082,11.3464 -4.1126,25.2387 -1.0065,13.5672 -1.0057,24.6951 0,38.1536 0.8995,12.0038 2.2856,21.1389 3.7645,24.8089 1.4199,3.5237 3.9661,6.8001 6.4723,8.3283 2.5471,1.5532 6.6119,2.5214 10.5984,2.5245 z m 399.5334,20.6359 c -6.2334,0.3109 -14.2431,0.037 -17.7994,-0.608 -3.5563,-0.6452 -9.6291,-2.7207 -13.4951,-4.6122 -4.2768,-2.0924 -8.3801,-5.3913 -10.4793,-8.4249 -1.8976,-2.7422 -4.3748,-7.6113 -5.5049,-10.8202 -1.1301,-3.2088 -2.0547,-9.6588 -2.0547,-14.3333 V 1122 h 13.8165 13.8164 l 0.8754,7.4482 c 0.4814,4.0964 1.7742,9.1863 2.8728,11.3107 1.0986,2.1244 3.7575,4.7728 5.9086,5.8852 2.1512,1.1124 6.8523,2.0225 10.4469,2.0225 4.599,0 7.8783,-0.9034 11.0663,-3.0487 2.8752,-1.9348 5.1634,-4.9693 6.2627,-8.3053 0.967,-2.9341 1.3735,-7.3802 0.9203,-10.063 -0.4466,-2.6435 -1.8976,-6.5914 -3.2244,-8.7731 -1.3592,-2.2351 -5.5443,-5.5347 -9.5869,-7.5584 -3.946,-1.9754 -12.0359,-5.3995 -17.9776,-7.6092 -5.9417,-2.2096 -13.6763,-5.9207 -17.1881,-8.2467 -3.5117,-2.3261 -8.0733,-6.8916 -10.1369,-10.1456 -2.0636,-3.2539 -4.4521,-9.2883 -5.3076,-13.4096 -0.8556,-4.1214 -1.2068,-11.229 -0.7805,-15.7946 0.4264,-4.5657 2.083,-11.3414 3.6815,-15.0571 1.6608,-3.8608 5.317,-8.8778 8.5319,-11.7077 3.0941,-2.7236 8.8605,-6.1275 12.8142,-7.5644 5.2098,-1.8933 10.6751,-2.6212 19.8552,-2.6442 8.8078,-0.022 14.9894,0.7244 20.291,2.4504 4.1934,1.3653 9.9696,4.4898 12.8361,6.9433 2.8664,2.4536 6.4452,7.0853 7.9529,10.2929 1.5077,3.2074 3.159,9.5239 3.6695,14.0364 l 0.9283,8.2046 h -14.1722 -14.1723 l -0.029,-3.6666 c -0.016,-2.0167 -1.1651,-6.1683 -2.5533,-9.2258 -1.3882,-3.0575 -3.7356,-6.2075 -5.2164,-7 -1.4808,-0.7925 -5.7223,-1.4409 -9.4256,-1.4409 -5.5556,0 -7.4949,0.6805 -11.0877,3.8906 -4.1386,3.6979 -4.3543,4.3571 -4.3543,13.3077 0,8.6909 0.3084,9.7237 4,13.3934 2.3591,2.3452 11.6573,7.322 22.6666,12.1322 10.2667,4.4858 21.1689,10.058 24.2272,12.3827 3.0583,2.3247 7.0839,6.5592 8.9458,9.41 1.8619,2.8508 3.7843,7.844 4.2719,11.0959 0.4877,3.2519 0.6187,10.5413 0.2912,16.1986 -0.4678,8.0807 -1.4324,11.848 -4.4991,17.5708 -2.6826,5.0062 -5.9259,8.6363 -10.369,11.6057 -3.556,2.3765 -9.556,5.2413 -13.3334,6.3662 -3.7773,1.1249 -11.9679,2.2997 -18.2012,2.6105 z m -492.66671,-1.9643 H 954.70672 V 1094 1020.6666 h 14.66667 14.66667 V 1082 v 61.3333 h 26.00004 26 v 12 12 z m 195.39781,0 c -16.5137,0 -18.6279,-0.2563 -19.248,-2.3333 -0.3832,-1.2834 -7.9236,-33.9333 -16.7565,-72.5555 -8.833,-38.6221 -16.0599,-70.5721 -16.0599,-71 0,-0.4278 6.8502,-0.7779 15.2228,-0.7779 h 15.2229 l 1.322,6.3334 c 0.7271,3.4833 5.3907,27.7833 10.3634,54 4.9727,26.2166 9.3869,47.6666 9.8092,47.6666 0.4223,0 5.5813,-24.15 11.4644,-53.6666 l 10.6965,-53.6667 14.9494,-0.377 c 8.2221,-0.2073 14.9494,-0.068 14.9494,0.3104 0,0.3781 -7.191,32.0478 -15.9801,70.377 -8.789,38.3293 -16.3004,71.0396 -16.692,72.6896 -0.6962,2.9333 -1.1249,3 -19.2635,3 z m 97.2689,0 h -41.3333 V 1094 1020.6666 h 40.6666 40.6667 v 12 12 h -26 -26 V 1062 v 17.3333 h 24.6667 24.6666 v 12 12 h -24.6666 -24.6667 v 20 20 h 26.6667 26.6666 v 12 12 z m 64,0 h -14.6667 v -73.4359 -73.4359 l 33,0.5194 c 27.143,0.4272 34.09,0.9294 39.1416,2.8292 3.3779,1.2705 8.1208,4.2329 10.5398,6.5832 2.419,2.3503 5.6225,6.9733 7.119,10.2733 2.086,4.6003 2.7307,8.8354 2.7632,18.1536 0.038,10.9212 -0.3629,12.9462 -3.9558,19.9714 -3.4568,6.7594 -5.0419,8.3517 -11.7063,11.76 l -7.7081,3.9421 6.7034,2.5006 c 3.6869,1.3753 7.9093,4.0337 9.3832,5.9074 1.4739,1.8738 3.3063,5.5874 4.0718,8.2526 0.7656,2.6651 1.9492,14.7138 2.6301,26.7749 1.0675,18.906 1.6192,22.4445 4.0014,25.6667 l 2.7632,3.7374 h -15.8259 c -15.3566,0 -15.8686,-0.094 -17.266,-3.1607 -0.7921,-1.7384 -1.8256,-12.3884 -2.2968,-23.6667 -0.5421,-12.9767 -1.605,-22.597 -2.895,-26.201 -1.3336,-3.7261 -3.3565,-6.3767 -5.851,-7.6667 -2.4383,-1.2608 -7.6818,-1.9716 -14.5456,-1.9716 h -10.7329 V 1136 v 31.3333 z m 24.3333,-82.6687 c 6.5675,-10e-4 11.1324,-0.7495 14.2386,-2.3334 2.5145,-1.2822 5.7865,-3.9877 7.271,-6.0123 1.8437,-2.5144 2.8474,-6.3175 3.1669,-12 0.344,-6.1195 -0.1683,-9.5527 -1.9378,-12.9856 -1.3467,-2.6128 -4.4592,-5.6927 -7.072,-6.9979 -3.2363,-1.6167 -7.834,-2.3319 -15,-2.3334 h -10.3334 v 21.3333 21.3333 h 9.6667 z m -165.512,-80.6014 c -4.8836,0.3016 -11.9189,-0.2436 -15.7605,-1.2213 -3.8166,-0.9713 -9.0902,-3.40658 -11.7192,-5.41188 -2.6289,-2.0052 -6.1924,-5.8472 -7.9189,-8.5379 -1.7264,-2.6907 -4.0825,-7.8921 -5.2356,-11.55879 -1.1532,-3.66667 -2.717,-11.75092 -3.4752,-17.96503 -0.7582,-6.21409 -1.3786,-19.42982 -1.3786,-29.3683 0,-9.93848 0.6109,-22.94196 1.3576,-28.89664 0.7466,-5.95467 2.5629,-14.33016 4.0361,-18.6122 1.4733,-4.28204 4.2802,-10.09652 6.2376,-12.92104 1.9574,-2.82454 5.9911,-6.79656 8.9638,-8.82674 2.9727,-2.03017 7.8049,-4.5157 10.7383,-5.5234 3.1071,-1.06741 10.6204,-1.81461 18,-1.7901 8.6477,0.0287 14.9452,0.81354 19.8481,2.47353 3.9498,1.33731 9.4281,4.46113 12.174,6.94184 2.7458,2.48069 6.2899,7.52649 7.8757,11.21287 1.5859,3.68637 3.3503,10.58136 3.9211,15.32218 l 1.0377,8.6197 h -13.6671 -13.6671 l -1.5239,-7.34012 c -1.067,-5.13974 -2.8412,-8.73704 -5.9186,-12 -3.475,-3.68464 -5.4221,-4.65988 -9.3036,-4.65988 -2.6998,0 -6.6175,0.88362 -8.706,1.96362 -2.1236,1.09814 -5.0327,4.51571 -6.6002,7.75379 -1.5416,3.1846 -3.4644,9.35096 -4.2728,13.70304 -0.914,4.92032 -1.241,18.50217 -0.8647,35.91288 0.4841,22.39379 1.0894,29.41265 3.0234,35.05543 1.4868,4.33804 4.1485,8.57468 6.9108,10.99996 3.3303,2.924 5.834,3.9446 9.6773,3.9446 3.6915,0 6.4207,-1.0401 9.4766,-3.6115 2.3607,-1.98633 5.3935,-6.03633 6.7397,-9 1.6882,-3.71661 2.4567,-8.5946 2.477,-15.72182 l 0.029,-10.33334 h -10 -10 V 934 923.33333 h 24 24 V 962.66666 1002 h -10.6664 -10.6667 v -6.88848 -6.8886 l -5.1022,5.5267 c -2.8062,3.0396 -7.3866,6.48108 -10.1787,7.64768 -2.7921,1.1666 -9.0461,2.3663 -13.8978,2.6659 z m -224.48801,-2.3474 -31.66667,0.53 V 928.65092 855.056 l 31.66667,0.59101 c 25.03381,0.46723 32.87201,1.04895 37.42141,2.77727 3.1651,1.20244 7.5317,3.45154 9.7035,4.99801 2.1718,1.54647 5.5579,5.90909 7.5245,9.69473 3.0411,5.85368 3.5839,8.58311 3.6299,18.2519 0.046,9.62702 -0.4667,12.38492 -3.3443,18 -2.5529,4.98126 -5.176,7.69961 -10.5431,10.92578 -5.7694,3.46802 -6.6551,4.44002 -4.6016,5.0496 1.3987,0.41519 5.243,2.14208 8.543,3.83752 4.0354,2.07327 7.3098,5.18803 10,9.51251 3.7872,6.08771 4,7.18045 4,20.53444 0,11.54795 -0.5109,15.20901 -2.8188,20.19775 -1.5503,3.3512 -5.0778,8.2871 -7.8389,10.9686 -2.7611,2.6815 -8.3926,6.2064 -12.5145,7.8331 -6.8246,2.69318 -10.3247,3.00488 -39.16111,3.48758 z m 7.33333,-21.07838 c 6.59708,-0.02 11.43798,-0.8335 15.24488,-2.56193 3.5227,-1.59933 6.438,-4.16805 7.9113,-6.97072 1.5197,-2.89099 2.3434,-7.48489 2.3629,-13.17823 0.022,-6.31269 -0.6943,-9.97394 -2.5779,-13.18254 -1.4343,-2.44332 -4.6985,-5.56027 -7.2537,-6.92654 -3.3873,-1.81118 -7.4508,-2.48413 -15.00001,-2.48413 H 984.04006 V 958 980.66662 l 9.66666,-0.029 z m -0.95717,-65.30409 c 4.79021,0 10.77705,-0.86389 13.30415,-1.91976 2.527,-1.05588 5.8055,-3.90588 7.2855,-6.33333 1.7191,-2.8197 2.6927,-6.74835 2.6959,-10.87874 0,-3.55584 -0.9414,-8.45948 -2.0981,-10.89697 -1.1986,-2.52585 -4.009,-5.33624 -6.5348,-6.53484 -2.7426,-1.30145 -8.03949,-2.10303 -13.89698,-2.10303 h -9.46516 V 896 915.33333 Z M 1064.7409,1002 h -15.1172 l 4.5382,-16.99998 c 2.4961,-9.35002 11.245,-42.36626 19.4421,-73.36946 l 14.9039,-56.36943 18.032,0.36943 18.032,0.36944 18.361,69.33333 c 10.0985,38.13333 18.731,71.00349 19.1832,73.04479 l 0.8222,3.71138 -15.0327,-0.3781 -15.0327,-0.3781 -3.2846,-14.99998 -3.2846,-14.99999 h -19.7471 -19.7471 l -1.2606,5 c -0.6934,2.74999 -2.2574,9.64999 -3.4757,15.33329 L 1079.8582,1002 Z m 41.964,-54.66667 c 11.4118,0 14.8039,-0.39477 14.3208,-1.66667 -0.3481,-0.91666 -3.5155,-15.46666 -7.0387,-32.33333 -3.5232,-16.86667 -6.7927,-31.12679 -7.2655,-31.68915 -0.4729,-0.56237 -3.7162,12.63763 -7.2075,29.33334 -3.4913,16.69569 -6.6663,31.70581 -7.0554,33.35581 -0.7017,2.97484 -0.5822,3 14.2463,3 z M 973.37339,761.99294 c -7.56148,-0.003 -11.03903,-0.63645 -14.26089,-2.60094 -2.34348,-1.42891 -5.34348,-4.24844 -6.66667,-6.26563 -2.1234,-3.23713 -2.45481,-7.54821 -2.82361,-36.73032 l -0.41784,-33.06272 h 7.41784 7.41784 v 29.9132 c 0,16.45227 0.58924,31.46303 1.30942,33.35724 0.72018,1.89423 2.86182,4.03427 4.7592,4.75565 1.89738,0.72138 4.9727,0.92938 6.83404,0.4622 2.15827,-0.54169 4.05686,-2.45908 5.24082,-5.29269 1.39585,-3.34073 1.85652,-11.7326 1.85652,-33.81944 v -29.37616 h 7.33333 7.33333 v 31.05081 c 0,29.54924 -0.14508,31.33851 -3,37 -1.95245,3.87184 -4.62952,6.76323 -7.66666,8.28046 -3.19996,1.59856 -7.8096,2.33034 -14.66667,2.32834 z m 39.97351,0.007 h -6.6402 v -39.33328 -39.33333 h 8.5363 c 8.1008,0 8.604,0.187 9.8664,3.66667 0.7316,2.01666 4.6725,13.13812 8.7575,24.71433 4.0851,11.57621 8.0269,22.07621 8.7597,23.33333 0.9199,1.578 1.3449,-6.07374 1.3729,-24.71433 l 0.041,-27 h 6.6667 6.6667 V 722.66666 762 h -8.3818 -8.3818 l -9.9515,-28.33334 -9.9516,-28.33333 -0.3598,28.33333 L 1019.987,762 Z m 74.0265,0 h -22 v -39.33328 -39.33333 h 21.3333 21.3334 v 6 6 h -14 -14 v 10 10 h 13.3333 13.3334 v 6 6 h -13.3334 -13.3333 V 738.66666 750 h 14.6667 14.6666 v 6 6 z m 47.3334,0 h -8 v -33.33328 -33.33333 h -8.6667 -8.6667 v -6 -6 h 25.3334 25.3333 v 6 6 h -8.6667 -8.6666 V 728.66666 762 Z m 51.3333,0 h -22 v -39.33328 -39.33333 h 21.3333 21.3334 v 6 6 h -14 -14 v 10 10 h 13.3333 13.3333 v 6 6 h -13.3333 -13.3333 V 738.66666 750 h 14.6666 14.6667 v 6 6 z m 46.6153,0 c -4.5871,0 -7.282,-0.56587 -7.282,-1.52902 0,-0.84096 4.2243,-17.49096 9.3873,-37 5.163,-19.50904 9.7034,-36.52098 10.0899,-37.80432 0.5846,-1.94178 2.3095,-2.33158 10.2793,-2.32289 l 9.5769,0.0107 9.8548,37.65624 c 5.4201,20.71092 10.1343,38.40622 10.4759,39.32289 0.4537,1.21713 -1.5359,1.66667 -7.3767,1.66667 h -7.9979 l -1.7227,-8.66667 -1.7227,-8.66667 h -11.0633 c -10.98,0 -11.0695,0.0276 -11.8891,3.66667 -0.4542,2.01667 -1.3887,5.91667 -2.0768,8.66667 l -1.251,5 h -7.2819 z m 21.9068,-29.33334 c 5.6132,0 8.1525,-0.51801 8.17,-1.66666 0.014,-0.91667 -1.5829,-9.03975 -3.5487,-18.0513 -1.9658,-9.01153 -4.0085,-15.91153 -4.5393,-15.33333 -0.5309,0.57821 -2.2772,7.35129 -3.8806,15.05129 -1.6035,7.7 -3.2373,15.35 -3.6307,17 -0.6823,2.86176 -0.3399,3 7.4293,3 z M 1309.3734,762 h -21.3333 v -39.33334 -39.33333 h 7.3333 7.3334 V 716.66666 750 h 13.9999 14 v 6 6 z M 972.55282,676.66666 c -4.2035,0 -4.59708,-0.3005 -3.77716,-2.88386 0.50341,-1.58612 1.7519,-4.88612 2.77441,-7.33334 1.75913,-4.21018 2.22088,-4.44946 8.58657,-4.44946 5.01162,0 6.47948,0.42508 5.7552,1.66666 -0.53474,0.91667 -2.69897,4.21667 -4.80941,7.33334 -3.29523,4.86637 -4.49987,5.66666 -8.52961,5.66666 z"
       id="path2707"
       inkscape:label="cta" /></g></svg>
