<?xml version="1.0" encoding="UTF-8" standalone="no"?>
<!-- Generator: Adobe Illustrator 19.1.0, SVG Export Plug-In . SVG Version: 6.00 Build 0)  -->

<svg
   version="1.1"
   id="Capa_1"
   x="0px"
   y="0px"
   viewBox="0 0 426.66667 426.66667"
   xml:space="preserve"
   sodipodi:docname="download-svgrepo-edit.svg"
   width="128"
   height="128"
   inkscape:version="1.2 (1:1.2.1+202207142221+cd75a1ee6d)"
   xmlns:inkscape="http://www.inkscape.org/namespaces/inkscape"
   xmlns:sodipodi="http://sodipodi.sourceforge.net/DTD/sodipodi-0.dtd"
   xmlns="http://www.w3.org/2000/svg"
   xmlns:svg="http://www.w3.org/2000/svg"><defs
   id="defs618" /><sodipodi:namedview
   id="namedview616"
   pagecolor="#ffffff"
   bordercolor="#666666"
   borderopacity="1.0"
   inkscape:showpageshadow="2"
   inkscape:pageopacity="0.0"
   inkscape:pagecheckerboard="0"
   inkscape:deskcolor="#d1d1d1"
   showgrid="false"
   inkscape:zoom="6.0642895"
   inkscape:cx="107.34976"
   inkscape:cy="103.30971"
   inkscape:window-width="3376"
   inkscape:window-height="1376"
   inkscape:window-x="0"
   inkscape:window-y="0"
   inkscape:window-maximized="1"
   inkscape:current-layer="g583" />
<g
   id="g583"
   transform="matrix(0.890319,0,0,0.890319,0.10193283,0)">
	<g
   id="g581"
   style="fill:#eae9e5;fill-opacity:1">
		<path
   d="m 158.4,196.8 c -5.3,5.3 -5.3,13.8 0,19.1 l 71.6,71.6 c 2.6,2.6 6.1,4 9.5,4 3.4,0 6.9,-1.3 9.5,-4 l 71.6,-71.6 c 5.3,-5.3 5.3,-13.8 0,-19.1 -5.3,-5.3 -13.8,-5.3 -19.1,0 L 253,245.3 V 13.5 C 253,6 247,0 239.5,0 232,0 226,6 226,13.5 v 231.8 l -48.5,-48.5 c -5.3,-5.3 -13.9,-5.3 -19.1,0 z"
   id="path577"
   style="fill:#eae9e5;fill-opacity:1" />
		<path
   d="m 460.2,307.4 -47,-170 c -1.1,-3.9 -3.8,-7 -7.4,-8.7 l -1.3,-0.6 c -1.8,-0.8 -3.7,-1.2 -5.6,-1.2 h -84.7 c -7.5,0 -13.5,6 -13.5,13.5 0,7.5 6,13.5 13.5,13.5 h 75.6 l 39.7,143.8 h -105 c -7.5,0 -13.5,6 -13.5,13.5 v 12.2 c 0,17.9 -14.5,32.4 -32.4,32.4 h -82.4 c -17.9,0 -32.4,-14.5 -32.4,-32.4 v -12.2 c 0,-7.5 -6,-13.5 -13.5,-13.5 H 49.4 L 89.3,153.6 h 75.6 c 7.5,0 13.5,-6 13.5,-13.5 0,-7.5 -6,-13.5 -13.5,-13.5 H 80.1 c -1.9,0 -3.8,0.4 -5.6,1.2 l -1.3,0.6 c -3.6,1.7 -6.4,4.8 -7.4,8.7 l -47,170 c -0.3,1.2 -0.5,2.4 -0.5,3.6 v 70.9 c 0,53.7 43.7,97.4 97.4,97.4 h 247.6 c 53.7,0 97.4,-43.7 97.4,-97.4 V 311 c 0,-1.3 -0.1,-2.5 -0.5,-3.6 z m -26.5,74.2 c 0,38.8 -31.6,70.4 -70.4,70.4 H 115.7 C 76.9,452 45.3,420.4 45.3,381.6 V 324.7 H 137 c 0.7,32.1 27.1,58 59.4,58 h 82.4 c 32.3,0 58.7,-25.9 59.4,-58 h 95.7 v 56.9 z"
   id="path579"
   style="fill:#eae9e5;fill-opacity:1" />
	</g>
</g>















</svg>
