<?xml version="1.0" encoding="UTF-8" standalone="no"?>
<!-- Created with Inkscape (http://www.inkscape.org/) -->

<svg
   version="1.1"
   id="svg2"
   xml:space="preserve"
   width="80"
   height="80"
   viewBox="0 0 80 80"
   sodipodi:docname="web_mock.svg"
   inkscape:version="1.2 (1:1.2.1+202207142221+cd75a1ee6d)"
   xmlns:inkscape="http://www.inkscape.org/namespaces/inkscape"
   xmlns:sodipodi="http://sodipodi.sourceforge.net/DTD/sodipodi-0.dtd"
   xmlns="http://www.w3.org/2000/svg"
   xmlns:svg="http://www.w3.org/2000/svg"><defs
     id="defs6" /><sodipodi:namedview
     id="namedview4"
     pagecolor="#ffffff"
     bordercolor="#666666"
     borderopacity="1.0"
     inkscape:pageshadow="2"
     inkscape:pageopacity="0.0"
     inkscape:pagecheckerboard="0"
     showgrid="false"
     height="4042px"
     inkscape:zoom="0.30427315"
     inkscape:cx="2039.2861"
     inkscape:cy="869.28471"
     inkscape:window-width="1858"
     inkscape:window-height="1016"
     inkscape:window-x="0"
     inkscape:window-y="0"
     inkscape:window-maximized="1"
     inkscape:current-layer="g9012"
     inkscape:showpageshadow="2"
     inkscape:deskcolor="#d1d1d1"
     showguides="true" /><g
     inkscape:groupmode="layer"
     id="layer7"
     inkscape:label="footer"
     style="display:inline;opacity:0.6"
     transform="translate(-1947.8121,-1789.8387)"><g
       id="g9904"
       transform="matrix(0.5,0,0,0.5,1922.8121,1766.3387)"
       inkscape:label="IG Logo"><g
         id="layer1-9"
         inkscape:label="Insta"
         style="display:none"><circle
           style="fill:#161614;fill-opacity:1;fill-rule:evenodd"
           id="path40-2"
           cx="128"
           cy="125"
           r="128" /></g><g
         id="layer3-2"
         inkscape:label="InstaMain"
         style="display:inline"><path
           d="m 129.99985,61.414707 c 21.36101,0 23.89102,0.0813 32.3267,0.466178 7.79992,0.355986 12.03586,1.659254 14.85516,2.75452 3.73388,1.451251 6.39916,3.185132 9.19846,5.984427 2.7993,2.799296 4.53317,5.464581 5.98411,9.198458 1.09559,2.819301 2.39886,7.055241 2.75483,14.854848 0.38489,8.436002 0.46619,10.966002 0.46619,32.327022 0,21.36102 -0.0813,23.89102 -0.46619,32.3267 -0.35597,7.79993 -1.65924,12.03587 -2.75483,14.85517 -1.45094,3.73387 -3.18481,6.39916 -5.98411,9.19845 -2.7993,2.79929 -5.46458,4.53318 -9.19846,5.98411 -2.8193,1.09558 -7.05524,2.39885 -14.85516,2.75484 -8.43442,0.38489 -10.96442,0.46618 -32.3267,0.46618 -21.3623,0 -23.8923,-0.0813 -32.326718,-0.46618 -7.799918,-0.35599 -12.035856,-1.65926 -14.854843,-2.75484 -3.734194,-1.45093 -6.399476,-3.18482 -9.198775,-5.98411 -2.799294,-2.79929 -4.533175,-5.46458 -5.984106,-9.19846 -1.095588,-2.81929 -2.398857,-7.05524 -2.754837,-14.85485 -0.384888,-8.43599 -0.466183,-10.966 -0.466183,-32.32701 0,-21.36102 0.0813,-23.89102 0.466183,-32.326711 0.35598,-7.799918 1.659249,-12.035858 2.754837,-14.855159 1.450931,-3.733877 3.184812,-6.399162 5.984106,-9.198458 2.799299,-2.799295 5.464581,-4.533176 9.198775,-5.984427 2.818987,-1.095266 7.054925,-2.398534 14.854531,-2.75452 8.436,-0.384883 10.966,-0.466178 32.32703,-0.466178 m 0,-14.414707 c -21.72685,0 -24.4509,0.09209 -32.983749,0.481422 -8.515381,0.388694 -14.33055,1.740867 -19.419456,3.718633 -5.260706,2.044455 -9.722119,4.779921 -14.16955,9.227356 -4.447437,4.447435 -7.182899,8.908842 -9.227356,14.169549 -1.977768,5.088907 -3.329942,10.904075 -3.718635,19.419459 C 50.091775,102.54896 50,105.27332 50,127.00016 c 0,21.72684 0.09177,24.4512 0.481104,32.98373 0.388693,8.51539 1.740867,14.33055 3.718635,19.41946 2.044457,5.2604 4.779919,9.72211 9.227356,14.16955 4.447431,4.44744 8.908844,7.1829 14.16955,9.22736 5.088906,1.97777 10.904075,3.32994 19.419456,3.71862 C 105.54895,206.90822 108.273,207 129.99985,207 c 21.72684,0 24.4512,-0.0918 32.98373,-0.48112 8.51539,-0.38868 14.33055,-1.74085 19.41946,-3.71862 5.26071,-2.04446 9.72212,-4.77992 14.16955,-9.22736 4.44744,-4.44744 7.18289,-8.90884 9.22736,-14.16955 1.97776,-5.08891 3.32993,-10.90407 3.71863,-19.41946 C 209.90791,151.45136 210,148.727 210,127.00016 c 0,-21.72685 -0.0921,-24.4512 -0.48142,-32.983741 -0.3887,-8.515384 -1.74087,-14.330552 -3.71863,-19.419459 -2.04447,-5.260707 -4.77992,-9.722114 -9.22736,-14.169549 -4.44743,-4.447435 -8.90884,-7.182901 -14.16955,-9.227356 -5.08891,-1.977766 -10.90407,-3.329939 -19.41946,-3.718633 C 154.45105,47.092092 151.72669,47 129.99985,47 Z m 0,38.918944 c -22.68844,0 -41.081224,18.392786 -41.081224,41.081216 0,22.68842 18.392784,41.08121 41.081224,41.08121 22.68842,0 41.08121,-18.39279 41.08121,-41.08121 0,-22.68843 -18.39279,-41.081216 -41.08121,-41.081216 z m 0,67.748026 c -14.72751,0 -26.66684,-11.93931 -26.66684,-26.66681 0,-14.7275 11.93933,-26.66683 26.66684,-26.66683 14.72749,0 26.66682,11.93933 26.66682,26.66683 0,14.7275 -11.93933,26.66681 -26.66682,26.66681 z m 52.30411,-69.371078 c 0,5.30199 -4.29786,9.600172 -9.59985,9.600172 -5.30199,0 -9.60017,-4.298182 -9.60017,-9.600172 0,-5.30199 4.29818,-9.599854 9.60017,-9.599854 5.30199,0 9.59985,4.297864 9.59985,9.599854 z"
           fill="#0a0a08"
           id="path866"
           style="fill:#eae9e5;fill-opacity:1;stroke-width:0.625" /></g></g></g></svg>
