<?xml version="1.0" encoding="UTF-8" standalone="no"?>
<svg
   width="85mm"
   height="55mm"
   viewBox="0 0 850 550"
   version="1.1"
   id="svg657"
   sodipodi:docname="invitationCard.svg"
   xml:space="preserve"
   inkscape:version="1.2 (1:1.2.1+202207142221+cd75a1ee6d)"
   xmlns:inkscape="http://www.inkscape.org/namespaces/inkscape"
   xmlns:sodipodi="http://sodipodi.sourceforge.net/DTD/sodipodi-0.dtd"
   xmlns:xlink="http://www.w3.org/1999/xlink"
   xmlns="http://www.w3.org/2000/svg"
   xmlns:svg="http://www.w3.org/2000/svg"><sodipodi:namedview
     id="namedview659"
     pagecolor="#ffffff"
     bordercolor="#666666"
     borderopacity="1.0"
     inkscape:showpageshadow="2"
     inkscape:pageopacity="0.0"
     inkscape:pagecheckerboard="0"
     inkscape:deskcolor="#d1d1d1"
     showgrid="false"
     inkscape:zoom="0.9725379"
     inkscape:cx="230.83933"
     inkscape:cy="153.72152"
     inkscape:window-width="1440"
     inkscape:window-height="1282"
     inkscape:window-x="26"
     inkscape:window-y="23"
     inkscape:window-maximized="0"
     inkscape:current-layer="svg657"
     inkscape:document-units="mm"
     showguides="true" /><defs
     id="defs5"><rect
       id="p"
       width="8"
       height="8"
       x="0"
       y="0" /></defs><rect
     style="display:inline;opacity:0.99;fill:#eae9e5;fill-opacity:1;stroke-width:2;stroke-linecap:round"
     id="rect2547"
     width="850"
     height="550"
     x="0"
     y="0"
     inkscape:label="BG"
     sodipodi:insensitive="true" /><rect
     x="0"
     y="0"
     width="533.69916"
     height="264"
     fill="#ffffff"
     id="rect4300"
     inkscape:label="Rect"
     style="display:none;opacity:0.99;stroke-width:1.42183"
     transform="matrix(1.3846589,0,0,1.3846589,52.695107,63.720877)" /><g
     id="g1213"
     inkscape:label="OR"
     transform="matrix(1.1997468,0,0,1.1997468,23.261145,187.76118)"><rect
       x="0"
       y="0"
       width="264"
       height="264"
       fill="#ffffff"
       id="rect2"
       inkscape:label="Rect"
       style="display:none;opacity:0.99" /><g
       fill="#000000"
       id="g653"
       style="display:inline"
       inkscape:label="QRCode"><use
         xlink:href="#p"
         x="32"
         y="32"
         id="use7" /><use
         xlink:href="#p"
         x="32"
         y="40"
         id="use9" /><use
         xlink:href="#p"
         x="32"
         y="48"
         id="use11" /><use
         xlink:href="#p"
         x="32"
         y="56"
         id="use13" /><use
         xlink:href="#p"
         x="32"
         y="64"
         id="use15" /><use
         xlink:href="#p"
         x="32"
         y="72"
         id="use17" /><use
         xlink:href="#p"
         x="32"
         y="80"
         id="use19" /><use
         xlink:href="#p"
         x="32"
         y="96"
         id="use21" /><use
         xlink:href="#p"
         x="32"
         y="104"
         id="use23" /><use
         xlink:href="#p"
         x="32"
         y="112"
         id="use25" /><use
         xlink:href="#p"
         x="32"
         y="128"
         id="use27" /><use
         xlink:href="#p"
         x="32"
         y="176"
         id="use29" /><use
         xlink:href="#p"
         x="32"
         y="184"
         id="use31" /><use
         xlink:href="#p"
         x="32"
         y="192"
         id="use33" /><use
         xlink:href="#p"
         x="32"
         y="200"
         id="use35" /><use
         xlink:href="#p"
         x="32"
         y="208"
         id="use37" /><use
         xlink:href="#p"
         x="32"
         y="216"
         id="use39" /><use
         xlink:href="#p"
         x="32"
         y="224"
         id="use41" /><use
         xlink:href="#p"
         x="40"
         y="32"
         id="use43" /><use
         xlink:href="#p"
         x="40"
         y="80"
         id="use45" /><use
         xlink:href="#p"
         x="40"
         y="96"
         id="use47" /><use
         xlink:href="#p"
         x="40"
         y="104"
         id="use49" /><use
         xlink:href="#p"
         x="40"
         y="136"
         id="use51" /><use
         xlink:href="#p"
         x="40"
         y="152"
         id="use53" /><use
         xlink:href="#p"
         x="40"
         y="160"
         id="use55" /><use
         xlink:href="#p"
         x="40"
         y="176"
         id="use57" /><use
         xlink:href="#p"
         x="40"
         y="224"
         id="use59" /><use
         xlink:href="#p"
         x="48"
         y="32"
         id="use61" /><use
         xlink:href="#p"
         x="48"
         y="48"
         id="use63" /><use
         xlink:href="#p"
         x="48"
         y="56"
         id="use65" /><use
         xlink:href="#p"
         x="48"
         y="64"
         id="use67" /><use
         xlink:href="#p"
         x="48"
         y="80"
         id="use69" /><use
         xlink:href="#p"
         x="48"
         y="104"
         id="use71" /><use
         xlink:href="#p"
         x="48"
         y="120"
         id="use73" /><use
         xlink:href="#p"
         x="48"
         y="128"
         id="use75" /><use
         xlink:href="#p"
         x="48"
         y="136"
         id="use77" /><use
         xlink:href="#p"
         x="48"
         y="176"
         id="use79" /><use
         xlink:href="#p"
         x="48"
         y="192"
         id="use81" /><use
         xlink:href="#p"
         x="48"
         y="200"
         id="use83" /><use
         xlink:href="#p"
         x="48"
         y="208"
         id="use85" /><use
         xlink:href="#p"
         x="48"
         y="224"
         id="use87" /><use
         xlink:href="#p"
         x="56"
         y="32"
         id="use89" /><use
         xlink:href="#p"
         x="56"
         y="48"
         id="use91" /><use
         xlink:href="#p"
         x="56"
         y="56"
         id="use93" /><use
         xlink:href="#p"
         x="56"
         y="64"
         id="use95" /><use
         xlink:href="#p"
         x="56"
         y="80"
         id="use97" /><use
         xlink:href="#p"
         x="56"
         y="96"
         id="use99" /><use
         xlink:href="#p"
         x="56"
         y="104"
         id="use101" /><use
         xlink:href="#p"
         x="56"
         y="120"
         id="use103" /><use
         xlink:href="#p"
         x="56"
         y="128"
         id="use105" /><use
         xlink:href="#p"
         x="56"
         y="152"
         id="use107" /><use
         xlink:href="#p"
         x="56"
         y="176"
         id="use109" /><use
         xlink:href="#p"
         x="56"
         y="192"
         id="use111" /><use
         xlink:href="#p"
         x="56"
         y="200"
         id="use113" /><use
         xlink:href="#p"
         x="56"
         y="208"
         id="use115" /><use
         xlink:href="#p"
         x="56"
         y="224"
         id="use117" /><use
         xlink:href="#p"
         x="64"
         y="32"
         id="use119" /><use
         xlink:href="#p"
         x="64"
         y="48"
         id="use121" /><use
         xlink:href="#p"
         x="64"
         y="56"
         id="use123" /><use
         xlink:href="#p"
         x="64"
         y="64"
         id="use125" /><use
         xlink:href="#p"
         x="64"
         y="80"
         id="use127" /><use
         xlink:href="#p"
         x="64"
         y="96"
         id="use129" /><use
         xlink:href="#p"
         x="64"
         y="120"
         id="use131" /><use
         xlink:href="#p"
         x="64"
         y="160"
         id="use133" /><use
         xlink:href="#p"
         x="64"
         y="176"
         id="use135" /><use
         xlink:href="#p"
         x="64"
         y="192"
         id="use137" /><use
         xlink:href="#p"
         x="64"
         y="200"
         id="use139" /><use
         xlink:href="#p"
         x="64"
         y="208"
         id="use141" /><use
         xlink:href="#p"
         x="64"
         y="224"
         id="use143" /><use
         xlink:href="#p"
         x="72"
         y="32"
         id="use145" /><use
         xlink:href="#p"
         x="72"
         y="80"
         id="use147" /><use
         xlink:href="#p"
         x="72"
         y="112"
         id="use149" /><use
         xlink:href="#p"
         x="72"
         y="120"
         id="use151" /><use
         xlink:href="#p"
         x="72"
         y="128"
         id="use153" /><use
         xlink:href="#p"
         x="72"
         y="144"
         id="use155" /><use
         xlink:href="#p"
         x="72"
         y="160"
         id="use157" /><use
         xlink:href="#p"
         x="72"
         y="176"
         id="use159" /><use
         xlink:href="#p"
         x="72"
         y="224"
         id="use161" /><use
         xlink:href="#p"
         x="80"
         y="32"
         id="use163" /><use
         xlink:href="#p"
         x="80"
         y="40"
         id="use165" /><use
         xlink:href="#p"
         x="80"
         y="48"
         id="use167" /><use
         xlink:href="#p"
         x="80"
         y="56"
         id="use169" /><use
         xlink:href="#p"
         x="80"
         y="64"
         id="use171" /><use
         xlink:href="#p"
         x="80"
         y="72"
         id="use173" /><use
         xlink:href="#p"
         x="80"
         y="80"
         id="use175" /><use
         xlink:href="#p"
         x="80"
         y="96"
         id="use177" /><use
         xlink:href="#p"
         x="80"
         y="112"
         id="use179" /><use
         xlink:href="#p"
         x="80"
         y="128"
         id="use181" /><use
         xlink:href="#p"
         x="80"
         y="144"
         id="use183" /><use
         xlink:href="#p"
         x="80"
         y="160"
         id="use185" /><use
         xlink:href="#p"
         x="80"
         y="176"
         id="use187" /><use
         xlink:href="#p"
         x="80"
         y="184"
         id="use189" /><use
         xlink:href="#p"
         x="80"
         y="192"
         id="use191" /><use
         xlink:href="#p"
         x="80"
         y="200"
         id="use193" /><use
         xlink:href="#p"
         x="80"
         y="208"
         id="use195" /><use
         xlink:href="#p"
         x="80"
         y="216"
         id="use197" /><use
         xlink:href="#p"
         x="80"
         y="224"
         id="use199" /><use
         xlink:href="#p"
         x="88"
         y="104"
         id="use201" /><use
         xlink:href="#p"
         x="88"
         y="112"
         id="use203" /><use
         xlink:href="#p"
         x="88"
         y="128"
         id="use205" /><use
         xlink:href="#p"
         x="88"
         y="136"
         id="use207" /><use
         xlink:href="#p"
         x="96"
         y="32"
         id="use209" /><use
         xlink:href="#p"
         x="96"
         y="80"
         id="use211" /><use
         xlink:href="#p"
         x="96"
         y="88"
         id="use213" /><use
         xlink:href="#p"
         x="96"
         y="104"
         id="use215" /><use
         xlink:href="#p"
         x="96"
         y="120"
         id="use217" /><use
         xlink:href="#p"
         x="96"
         y="152"
         id="use219" /><use
         xlink:href="#p"
         x="96"
         y="168"
         id="use221" /><use
         xlink:href="#p"
         x="96"
         y="192"
         id="use223" /><use
         xlink:href="#p"
         x="96"
         y="200"
         id="use225" /><use
         xlink:href="#p"
         x="96"
         y="216"
         id="use227" /><use
         xlink:href="#p"
         x="96"
         y="224"
         id="use229" /><use
         xlink:href="#p"
         x="104"
         y="32"
         id="use231" /><use
         xlink:href="#p"
         x="104"
         y="48"
         id="use233" /><use
         xlink:href="#p"
         x="104"
         y="72"
         id="use235" /><use
         xlink:href="#p"
         x="104"
         y="88"
         id="use237" /><use
         xlink:href="#p"
         x="104"
         y="96"
         id="use239" /><use
         xlink:href="#p"
         x="104"
         y="112"
         id="use241" /><use
         xlink:href="#p"
         x="104"
         y="128"
         id="use243" /><use
         xlink:href="#p"
         x="104"
         y="144"
         id="use245" /><use
         xlink:href="#p"
         x="104"
         y="152"
         id="use247" /><use
         xlink:href="#p"
         x="104"
         y="160"
         id="use249" /><use
         xlink:href="#p"
         x="104"
         y="176"
         id="use251" /><use
         xlink:href="#p"
         x="104"
         y="192"
         id="use253" /><use
         xlink:href="#p"
         x="104"
         y="200"
         id="use255" /><use
         xlink:href="#p"
         x="104"
         y="208"
         id="use257" /><use
         xlink:href="#p"
         x="112"
         y="32"
         id="use259" /><use
         xlink:href="#p"
         x="112"
         y="56"
         id="use261" /><use
         xlink:href="#p"
         x="112"
         y="64"
         id="use263" /><use
         xlink:href="#p"
         x="112"
         y="80"
         id="use265" /><use
         xlink:href="#p"
         x="112"
         y="104"
         id="use267" /><use
         xlink:href="#p"
         x="112"
         y="128"
         id="use269" /><use
         xlink:href="#p"
         x="112"
         y="136"
         id="use271" /><use
         xlink:href="#p"
         x="112"
         y="144"
         id="use273" /><use
         xlink:href="#p"
         x="112"
         y="168"
         id="use275" /><use
         xlink:href="#p"
         x="112"
         y="208"
         id="use277" /><use
         xlink:href="#p"
         x="112"
         y="216"
         id="use279" /><use
         xlink:href="#p"
         x="112"
         y="224"
         id="use281" /><use
         xlink:href="#p"
         x="120"
         y="32"
         id="use283" /><use
         xlink:href="#p"
         x="120"
         y="40"
         id="use285" /><use
         xlink:href="#p"
         x="120"
         y="48"
         id="use287" /><use
         xlink:href="#p"
         x="120"
         y="56"
         id="use289" /><use
         xlink:href="#p"
         x="120"
         y="64"
         id="use291" /><use
         xlink:href="#p"
         x="120"
         y="72"
         id="use293" /><use
         xlink:href="#p"
         x="120"
         y="88"
         id="use295" /><use
         xlink:href="#p"
         x="120"
         y="96"
         id="use297" /><use
         xlink:href="#p"
         x="120"
         y="104"
         id="use299" /><use
         xlink:href="#p"
         x="120"
         y="112"
         id="use301" /><use
         xlink:href="#p"
         x="120"
         y="120"
         id="use303" /><use
         xlink:href="#p"
         x="120"
         y="136"
         id="use305" /><use
         xlink:href="#p"
         x="120"
         y="152"
         id="use307" /><use
         xlink:href="#p"
         x="120"
         y="176"
         id="use309" /><use
         xlink:href="#p"
         x="120"
         y="184"
         id="use311" /><use
         xlink:href="#p"
         x="120"
         y="200"
         id="use313" /><use
         xlink:href="#p"
         x="120"
         y="208"
         id="use315" /><use
         xlink:href="#p"
         x="128"
         y="40"
         id="use317" /><use
         xlink:href="#p"
         x="128"
         y="56"
         id="use319" /><use
         xlink:href="#p"
         x="128"
         y="64"
         id="use321" /><use
         xlink:href="#p"
         x="128"
         y="80"
         id="use323" /><use
         xlink:href="#p"
         x="128"
         y="96"
         id="use325" /><use
         xlink:href="#p"
         x="128"
         y="104"
         id="use327" /><use
         xlink:href="#p"
         x="128"
         y="128"
         id="use329" /><use
         xlink:href="#p"
         x="128"
         y="160"
         id="use331" /><use
         xlink:href="#p"
         x="128"
         y="184"
         id="use333" /><use
         xlink:href="#p"
         x="128"
         y="192"
         id="use335" /><use
         xlink:href="#p"
         x="128"
         y="208"
         id="use337" /><use
         xlink:href="#p"
         x="128"
         y="224"
         id="use339" /><use
         xlink:href="#p"
         x="136"
         y="40"
         id="use341" /><use
         xlink:href="#p"
         x="136"
         y="48"
         id="use343" /><use
         xlink:href="#p"
         x="136"
         y="56"
         id="use345" /><use
         xlink:href="#p"
         x="136"
         y="88"
         id="use347" /><use
         xlink:href="#p"
         x="136"
         y="112"
         id="use349" /><use
         xlink:href="#p"
         x="136"
         y="144"
         id="use351" /><use
         xlink:href="#p"
         x="136"
         y="160"
         id="use353" /><use
         xlink:href="#p"
         x="136"
         y="176"
         id="use355" /><use
         xlink:href="#p"
         x="136"
         y="184"
         id="use357" /><use
         xlink:href="#p"
         x="136"
         y="208"
         id="use359" /><use
         xlink:href="#p"
         x="144"
         y="32"
         id="use361" /><use
         xlink:href="#p"
         x="144"
         y="40"
         id="use363" /><use
         xlink:href="#p"
         x="144"
         y="64"
         id="use365" /><use
         xlink:href="#p"
         x="144"
         y="72"
         id="use367" /><use
         xlink:href="#p"
         x="144"
         y="80"
         id="use369" /><use
         xlink:href="#p"
         x="144"
         y="96"
         id="use371" /><use
         xlink:href="#p"
         x="144"
         y="104"
         id="use373" /><use
         xlink:href="#p"
         x="144"
         y="112"
         id="use375" /><use
         xlink:href="#p"
         x="144"
         y="120"
         id="use377" /><use
         xlink:href="#p"
         x="144"
         y="136"
         id="use379" /><use
         xlink:href="#p"
         x="144"
         y="144"
         id="use381" /><use
         xlink:href="#p"
         x="144"
         y="152"
         id="use383" /><use
         xlink:href="#p"
         x="144"
         y="168"
         id="use385" /><use
         xlink:href="#p"
         x="144"
         y="192"
         id="use387" /><use
         xlink:href="#p"
         x="144"
         y="200"
         id="use389" /><use
         xlink:href="#p"
         x="144"
         y="208"
         id="use391" /><use
         xlink:href="#p"
         x="144"
         y="224"
         id="use393" /><use
         xlink:href="#p"
         x="152"
         y="48"
         id="use395" /><use
         xlink:href="#p"
         x="152"
         y="88"
         id="use397" /><use
         xlink:href="#p"
         x="152"
         y="104"
         id="use399" /><use
         xlink:href="#p"
         x="152"
         y="112"
         id="use401" /><use
         xlink:href="#p"
         x="152"
         y="120"
         id="use403" /><use
         xlink:href="#p"
         x="152"
         y="128"
         id="use405" /><use
         xlink:href="#p"
         x="152"
         y="136"
         id="use407" /><use
         xlink:href="#p"
         x="152"
         y="144"
         id="use409" /><use
         xlink:href="#p"
         x="152"
         y="152"
         id="use411" /><use
         xlink:href="#p"
         x="152"
         y="184"
         id="use413" /><use
         xlink:href="#p"
         x="152"
         y="192"
         id="use415" /><use
         xlink:href="#p"
         x="160"
         y="64"
         id="use417" /><use
         xlink:href="#p"
         x="160"
         y="80"
         id="use419" /><use
         xlink:href="#p"
         x="160"
         y="88"
         id="use421" /><use
         xlink:href="#p"
         x="160"
         y="96"
         id="use423" /><use
         xlink:href="#p"
         x="160"
         y="112"
         id="use425" /><use
         xlink:href="#p"
         x="160"
         y="128"
         id="use427" /><use
         xlink:href="#p"
         x="160"
         y="136"
         id="use429" /><use
         xlink:href="#p"
         x="160"
         y="160"
         id="use431" /><use
         xlink:href="#p"
         x="160"
         y="168"
         id="use433" /><use
         xlink:href="#p"
         x="160"
         y="176"
         id="use435" /><use
         xlink:href="#p"
         x="160"
         y="184"
         id="use437" /><use
         xlink:href="#p"
         x="160"
         y="192"
         id="use439" /><use
         xlink:href="#p"
         x="160"
         y="200"
         id="use441" /><use
         xlink:href="#p"
         x="160"
         y="208"
         id="use443" /><use
         xlink:href="#p"
         x="160"
         y="224"
         id="use445" /><use
         xlink:href="#p"
         x="168"
         y="104"
         id="use447" /><use
         xlink:href="#p"
         x="168"
         y="136"
         id="use449" /><use
         xlink:href="#p"
         x="168"
         y="144"
         id="use451" /><use
         xlink:href="#p"
         x="168"
         y="152"
         id="use453" /><use
         xlink:href="#p"
         x="168"
         y="160"
         id="use455" /><use
         xlink:href="#p"
         x="168"
         y="192"
         id="use457" /><use
         xlink:href="#p"
         x="168"
         y="208"
         id="use459" /><use
         xlink:href="#p"
         x="168"
         y="224"
         id="use461" /><use
         xlink:href="#p"
         x="176"
         y="32"
         id="use463" /><use
         xlink:href="#p"
         x="176"
         y="40"
         id="use465" /><use
         xlink:href="#p"
         x="176"
         y="48"
         id="use467" /><use
         xlink:href="#p"
         x="176"
         y="56"
         id="use469" /><use
         xlink:href="#p"
         x="176"
         y="64"
         id="use471" /><use
         xlink:href="#p"
         x="176"
         y="72"
         id="use473" /><use
         xlink:href="#p"
         x="176"
         y="80"
         id="use475" /><use
         xlink:href="#p"
         x="176"
         y="96"
         id="use477" /><use
         xlink:href="#p"
         x="176"
         y="112"
         id="use479" /><use
         xlink:href="#p"
         x="176"
         y="128"
         id="use481" /><use
         xlink:href="#p"
         x="176"
         y="144"
         id="use483" /><use
         xlink:href="#p"
         x="176"
         y="160"
         id="use485" /><use
         xlink:href="#p"
         x="176"
         y="176"
         id="use487" /><use
         xlink:href="#p"
         x="176"
         y="192"
         id="use489" /><use
         xlink:href="#p"
         x="176"
         y="200"
         id="use491" /><use
         xlink:href="#p"
         x="184"
         y="32"
         id="use493" /><use
         xlink:href="#p"
         x="184"
         y="80"
         id="use495" /><use
         xlink:href="#p"
         x="184"
         y="104"
         id="use497" /><use
         xlink:href="#p"
         x="184"
         y="112"
         id="use499" /><use
         xlink:href="#p"
         x="184"
         y="120"
         id="use501" /><use
         xlink:href="#p"
         x="184"
         y="152"
         id="use503" /><use
         xlink:href="#p"
         x="184"
         y="160"
         id="use505" /><use
         xlink:href="#p"
         x="184"
         y="192"
         id="use507" /><use
         xlink:href="#p"
         x="184"
         y="216"
         id="use509" /><use
         xlink:href="#p"
         x="192"
         y="32"
         id="use511" /><use
         xlink:href="#p"
         x="192"
         y="48"
         id="use513" /><use
         xlink:href="#p"
         x="192"
         y="56"
         id="use515" /><use
         xlink:href="#p"
         x="192"
         y="64"
         id="use517" /><use
         xlink:href="#p"
         x="192"
         y="80"
         id="use519" /><use
         xlink:href="#p"
         x="192"
         y="104"
         id="use521" /><use
         xlink:href="#p"
         x="192"
         y="136"
         id="use523" /><use
         xlink:href="#p"
         x="192"
         y="144"
         id="use525" /><use
         xlink:href="#p"
         x="192"
         y="160"
         id="use527" /><use
         xlink:href="#p"
         x="192"
         y="168"
         id="use529" /><use
         xlink:href="#p"
         x="192"
         y="176"
         id="use531" /><use
         xlink:href="#p"
         x="192"
         y="184"
         id="use533" /><use
         xlink:href="#p"
         x="192"
         y="192"
         id="use535" /><use
         xlink:href="#p"
         x="192"
         y="208"
         id="use537" /><use
         xlink:href="#p"
         x="192"
         y="216"
         id="use539" /><use
         xlink:href="#p"
         x="200"
         y="32"
         id="use541" /><use
         xlink:href="#p"
         x="200"
         y="48"
         id="use543" /><use
         xlink:href="#p"
         x="200"
         y="56"
         id="use545" /><use
         xlink:href="#p"
         x="200"
         y="64"
         id="use547" /><use
         xlink:href="#p"
         x="200"
         y="80"
         id="use549" /><use
         xlink:href="#p"
         x="200"
         y="104"
         id="use551" /><use
         xlink:href="#p"
         x="200"
         y="112"
         id="use553" /><use
         xlink:href="#p"
         x="200"
         y="120"
         id="use555" /><use
         xlink:href="#p"
         x="200"
         y="144"
         id="use557" /><use
         xlink:href="#p"
         x="200"
         y="152"
         id="use559" /><use
         xlink:href="#p"
         x="200"
         y="208"
         id="use561" /><use
         xlink:href="#p"
         x="200"
         y="224"
         id="use563" /><use
         xlink:href="#p"
         x="208"
         y="32"
         id="use565" /><use
         xlink:href="#p"
         x="208"
         y="48"
         id="use567" /><use
         xlink:href="#p"
         x="208"
         y="56"
         id="use569" /><use
         xlink:href="#p"
         x="208"
         y="64"
         id="use571" /><use
         xlink:href="#p"
         x="208"
         y="80"
         id="use573" /><use
         xlink:href="#p"
         x="208"
         y="104"
         id="use575" /><use
         xlink:href="#p"
         x="208"
         y="120"
         id="use577" /><use
         xlink:href="#p"
         x="208"
         y="144"
         id="use579" /><use
         xlink:href="#p"
         x="208"
         y="152"
         id="use581" /><use
         xlink:href="#p"
         x="208"
         y="160"
         id="use583" /><use
         xlink:href="#p"
         x="208"
         y="168"
         id="use585" /><use
         xlink:href="#p"
         x="208"
         y="208"
         id="use587" /><use
         xlink:href="#p"
         x="208"
         y="216"
         id="use589" /><use
         xlink:href="#p"
         x="216"
         y="32"
         id="use591" /><use
         xlink:href="#p"
         x="216"
         y="80"
         id="use593" /><use
         xlink:href="#p"
         x="216"
         y="104"
         id="use595" /><use
         xlink:href="#p"
         x="216"
         y="120"
         id="use597" /><use
         xlink:href="#p"
         x="216"
         y="136"
         id="use599" /><use
         xlink:href="#p"
         x="216"
         y="144"
         id="use601" /><use
         xlink:href="#p"
         x="216"
         y="160"
         id="use603" /><use
         xlink:href="#p"
         x="216"
         y="168"
         id="use605" /><use
         xlink:href="#p"
         x="216"
         y="192"
         id="use607" /><use
         xlink:href="#p"
         x="216"
         y="200"
         id="use609" /><use
         xlink:href="#p"
         x="216"
         y="208"
         id="use611" /><use
         xlink:href="#p"
         x="216"
         y="216"
         id="use613" /><use
         xlink:href="#p"
         x="224"
         y="32"
         id="use615" /><use
         xlink:href="#p"
         x="224"
         y="40"
         id="use617" /><use
         xlink:href="#p"
         x="224"
         y="48"
         id="use619" /><use
         xlink:href="#p"
         x="224"
         y="56"
         id="use621" /><use
         xlink:href="#p"
         x="224"
         y="64"
         id="use623" /><use
         xlink:href="#p"
         x="224"
         y="72"
         id="use625" /><use
         xlink:href="#p"
         x="224"
         y="80"
         id="use627" /><use
         xlink:href="#p"
         x="224"
         y="96"
         id="use629" /><use
         xlink:href="#p"
         x="224"
         y="112"
         id="use631" /><use
         xlink:href="#p"
         x="224"
         y="120"
         id="use633" /><use
         xlink:href="#p"
         x="224"
         y="128"
         id="use635" /><use
         xlink:href="#p"
         x="224"
         y="144"
         id="use637" /><use
         xlink:href="#p"
         x="224"
         y="152"
         id="use639" /><use
         xlink:href="#p"
         x="224"
         y="176"
         id="use641" /><use
         xlink:href="#p"
         x="224"
         y="184"
         id="use643" /><use
         xlink:href="#p"
         x="224"
         y="200"
         id="use645" /><use
         xlink:href="#p"
         x="224"
         y="208"
         id="use647" /><use
         xlink:href="#p"
         x="224"
         y="216"
         id="use649" /><use
         xlink:href="#p"
         x="224"
         y="224"
         id="use651" /></g></g><path
     style="display:inline;fill:#000000;stroke-width:0.660303"
     d="m 537.75257,467.5169 c -3.04846,0.16839 -6.94338,0.0508 -8.65545,-0.26094 -1.71204,-0.31178 -4.49887,-1.25909 -6.19294,-2.1052 -1.69403,-0.84602 -4.07938,-2.70566 -5.30074,-4.13256 -1.22136,-1.42689 -2.7933,-4.12488 -3.49318,-5.99548 -0.6999,-1.87069 -1.62985,-5.84482 -2.06654,-8.83154 -0.51843,-3.54538 -0.68169,-10.29045 -0.47034,-19.43168 0.27438,-11.86811 0.53695,-14.6636 1.72343,-18.34767 0.76983,-2.39038 2.2568,-5.62237 3.30438,-7.18219 1.04757,-1.55981 3.17715,-3.69055 4.73241,-4.7351 1.55528,-1.04452 4.04444,-2.25695 5.53144,-2.69418 1.48704,-0.4373 5.68788,-0.80452 9.3352,-0.81598 6.20181,-0.02 6.921,0.12144 11.10023,2.17889 3.09046,1.52142 5.07266,3.03368 6.42681,4.90299 1.07693,1.48664 2.36986,4.20764 2.87321,6.04663 0.50336,1.8391 1.07864,5.34936 1.27846,7.80078 l 0.36332,4.45698 h -7.14733 -7.14731 l -0.45329,-4.42459 c -0.24935,-2.43356 -0.92473,-5.41808 -1.50085,-6.6322 -0.57616,-1.21404 -1.88408,-2.64006 -2.90658,-3.16879 -1.0225,-0.52876 -3.08526,-0.96138 -4.5839,-0.96138 -2.1105,0 -3.1459,0.42107 -4.59267,1.86782 -1.02731,1.02737 -2.20901,3.03308 -2.62597,4.4571 -0.41698,1.424 -1.09226,6.84877 -1.50068,12.05496 -0.53906,6.8712 -0.54794,11.9389 -0.0325,18.48846 0.4276,5.43321 1.16171,10.14409 1.84522,11.84138 0.62432,1.55036 1.88354,3.40739 2.79829,4.12688 1.12548,0.88539 2.67278,1.30826 4.78653,1.30826 2.13016,0 3.66072,-0.42257 4.81295,-1.3289 0.92925,-0.73095 2.15276,-2.73664 2.71896,-4.4571 0.56619,-1.72044 1.22578,-5.28227 1.46572,-7.91523 l 0.43629,-4.78723 h 7.05774 7.05781 l -0.24158,3.79673 c -0.13288,2.08819 -0.55634,5.56963 -0.94107,7.73656 -0.38476,2.16693 -1.38823,5.28687 -2.22999,6.93322 -0.84167,1.64626 -2.52264,3.94381 -3.73533,5.10551 -1.21271,1.16168 -3.57356,2.71661 -5.24633,3.45545 -1.95198,0.86215 -5.02659,1.45292 -8.58391,1.64934 z m 89.8713,0.29394 c -1.63425,-0.0398 -4.30846,-0.29972 -5.94273,-0.57732 -1.63426,-0.27737 -4.15992,-1.00036 -5.61264,-1.60647 -1.45262,-0.60612 -3.5871,-2.01756 -4.74328,-3.13649 -1.15614,-1.1189 -2.79041,-3.55525 -3.63163,-5.41407 -1.51674,-3.35116 -1.5312,-3.63044 -1.72014,-33.25837 l -0.19052,-29.87867 h 6.92028 6.92031 l 0.20338,28.55819 c 0.18392,25.82019 0.31533,28.76274 1.37016,30.69287 0.64172,1.17415 2.03835,2.58549 3.10368,3.13647 1.06528,0.5509 3.00643,1.00157 4.31359,1.00157 1.30717,0 3.2132,-0.43254 4.23567,-0.96128 1.02252,-0.52875 2.41914,-2.08875 3.10371,-3.46661 1.14985,-2.31459 1.26049,-4.65313 1.45402,-30.73326 l 0.20945,-28.22795 h 6.91449 6.91449 l -0.19077,29.54856 c -0.18879,29.24355 -0.20644,29.58266 -1.71027,32.85014 -0.83575,1.81586 -2.47,4.29328 -3.63164,5.50533 -1.16171,1.21213 -3.19056,2.75987 -4.50855,3.43938 -1.31805,0.67951 -4.28944,1.54257 -6.6031,1.91807 -2.31363,0.37538 -5.54371,0.64989 -7.17796,0.60991 z m -43.9102,-1.23797 h -20.1393 v -36.31674 -36.31668 h 7.26337 7.26329 v 30.37394 30.37402 h 12.87598 12.87591 v 5.94274 5.94272 z m 89.30604,-0.14079 -15.6822,0.26254 v -36.44627 -36.44628 l 15.6822,0.29273 c 12.39743,0.23132 16.27917,0.51949 18.53213,1.37536 1.56743,0.59547 3.72989,1.70927 4.80542,2.47513 1.07554,0.76584 2.75244,2.9264 3.72634,4.80109 1.50605,2.89897 1.77486,4.25059 1.79764,9.03883 0.0227,4.76769 -0.23113,6.13348 -1.6562,8.91411 -1.26426,2.46694 -2.56328,3.81308 -5.22124,5.41079 -2.85716,1.71744 -3.29577,2.19883 -2.27882,2.50065 0.69266,0.20568 2.59647,1.06088 4.2307,1.90051 1.99846,1.02669 3.62001,2.56925 4.95231,4.71085 1.87553,3.01474 1.98089,3.55594 1.98089,10.16922 0,5.71889 -0.25301,7.53195 -1.39595,10.00251 -0.76773,1.6596 -2.51466,4.10391 -3.88204,5.43193 -1.36736,1.328 -4.15622,3.07354 -6.19752,3.87919 -3.37973,1.33377 -5.11303,1.48814 -19.39366,1.72711 z m 3.63169,-10.43863 c 3.26709,-0.009 5.66443,-0.41276 7.5497,-1.26865 1.74449,-0.79208 3.18822,-2.06423 3.91786,-3.45216 0.75258,-1.43169 1.16051,-3.70668 1.17014,-6.52621 0.0106,-3.12621 -0.34382,-4.93939 -1.27661,-6.52832 -0.71033,-1.21003 -2.32678,-2.75359 -3.59224,-3.4302 -1.6775,-0.89697 -3.68986,-1.23029 -7.42842,-1.23029 h -5.12763 v 11.2252 11.22521 l 4.7872,-0.014 z m -0.47401,-32.34033 c 2.37224,0 5.33708,-0.42783 6.58856,-0.9507 1.2515,-0.52296 2.87508,-1.9343 3.60802,-3.13647 0.85135,-1.3964 1.33344,-3.34198 1.33503,-5.38748 0,-1.76092 -0.4662,-4.18937 -1.03897,-5.39643 -0.5936,-1.25094 -1.98539,-2.64264 -3.23627,-3.2363 -1.35821,-0.6445 -3.98138,-1.04143 -6.88214,-1.04143 h -4.68742 v 9.57436 9.57445 z m -309.1168,42.25939 c -8.8572,0 -16.10271,-0.22283 -16.10115,-0.49514 9.9e-4,-0.2724 1.63539,-13.2722 3.63075,-28.88839 1.99537,-15.6161 3.62834,-28.61588 3.62886,-28.88818 5.7e-4,-0.2724 -5.64469,-0.49525 -12.54488,-0.49525 h -12.54575 v -18.81869 -18.81869 h 14.85683 c 8.17125,0 14.8575,-0.22284 14.85833,-0.49513 5.5e-4,-0.27241 1.03474,-8.51797 2.29762,-18.32344 1.26286,-9.80558 2.47688,-18.94254 2.69777,-20.30444 l 0.40163,-2.47611 h -12.27366 -12.27366 v -18.81859 -18.8187 h 14.52668 c 12.66879,0 14.52668,-0.1306 14.52668,-1.02148 0,-0.56186 1.48565,-12.81874 3.30143,-27.23756 1.81578,-14.4188 3.46349,-27.18167 3.66156,-28.36198 l 0.36017,-2.14598 h 16.01081 16.01078 l -3.46165,28.22798 c -1.90391,15.52541 -3.47664,28.748 -3.49493,29.38353 -0.0309,1.07046 1.17753,1.15549 16.41624,1.15549 h 16.44955 l 0.38248,-2.4761 c 0.21037,-1.3619 1.87074,-14.24581 3.68972,-28.63097 1.81897,-14.38515 3.30723,-26.49346 3.30723,-26.90736 0,-0.54274 4.51057,-0.75257 16.17743,-0.75257 14.98303,0 16.17744,0.0855 16.17744,1.15857 0,0.63722 -1.48199,12.89409 -3.2933,27.23752 -1.81133,14.34344 -3.45904,27.0447 -3.6616,28.22492 l -0.36828,2.14599 h 12.5757 12.57569 v 18.8187 18.81859 h -14.70887 -14.70887 l -2.50165,19.64406 c -1.37588,10.80424 -2.65105,20.16403 -2.83367,20.79957 -0.30794,1.07174 0.58123,1.15549 12.25823,1.15549 h 12.59029 v 18.80603 18.80602 l -14.67425,0.17769 -14.67421,0.17777 -3.67424,29.0533 -3.67424,29.0534 -16.30327,0.17658 -16.30327,0.17659 0.32045,-1.82734 c 0.17625,-1.00504 1.80412,-13.66084 3.61748,-28.12413 1.81334,-14.46318 3.29699,-26.86861 3.29699,-27.56766 0,-1.2204 -0.65527,-1.27087 -16.49501,-1.27087 h -16.49501 l -0.31151,1.48563 c -0.17133,0.81711 -1.67655,13.07397 -3.34494,27.23753 -1.66836,14.16348 -3.20116,26.71759 -3.40621,27.89781 l -0.37281,2.14599 z m 44.59129,-96.40434 h 16.5004 l 0.3686,-2.14598 c 0.2027,-1.18034 1.40471,-10.14618 2.67112,-19.92424 1.26641,-9.77795 2.30255,-18.17718 2.30255,-18.66494 0,-0.72317 -3.06883,-0.8541 -16.64991,-0.71022 l -16.64989,0.17648 -2.12175,17.49798 c -1.16695,9.62391 -2.30169,18.90942 -2.52164,20.63454 l -0.39989,3.13638 z m 168.76024,16.82246 c -2.90535,0.15225 -6.68319,0.0211 -8.39524,-0.29105 -1.71205,-0.31228 -4.49891,-1.26009 -6.19292,-2.1061 -1.69408,-0.84613 -4.07944,-2.70575 -5.30077,-4.13266 -1.22138,-1.4269 -2.79334,-4.12486 -3.49319,-5.99547 -0.6999,-1.87061 -1.62985,-5.84482 -2.06659,-8.83154 -0.51838,-3.54539 -0.68164,-10.29037 -0.47031,-19.43169 0.27439,-11.86811 0.53698,-14.66361 1.72344,-18.34757 0.76983,-2.39049 2.25682,-5.62248 3.30435,-7.18219 1.04762,-1.55982 3.17718,-3.69066 4.73243,-4.73519 1.55529,-1.04453 4.04445,-2.25388 5.53147,-2.68759 1.48701,-0.43363 5.5265,-0.79696 8.97658,-0.80742 4.3383,-0.0134 7.32581,0.34347 9.68702,1.1564 1.87775,0.64648 4.7265,2.33063 6.33054,3.7426 1.8204,1.60227 3.58006,4.0459 4.68233,6.50218 0.97131,2.16425 2.06056,5.37581 2.42052,7.13661 0.36002,1.76094 0.8414,8.10448 1.06969,14.09667 0.24912,6.53859 0.12311,13.53533 -0.31495,17.49807 -0.40149,3.63174 -1.18034,8.11366 -1.73067,9.95983 -0.55034,1.84617 -1.85748,4.63248 -2.90466,6.19171 -1.0472,1.55931 -3.17094,3.68586 -4.71943,4.72591 -1.54848,1.03994 -3.88908,2.19922 -5.20131,2.57621 -1.31222,0.37691 -4.76297,0.80993 -7.66833,0.96228 z m -1.41968,-10.22185 c 2.74636,0 3.5139,-0.30889 5.38839,-2.18338 1.20221,-1.20228 2.58391,-3.505 3.07043,-5.11737 0.63945,-2.11906 0.88452,-7.59746 0.88452,-19.76919 0,-12.17183 -0.24507,-17.65013 -0.88452,-19.76929 -0.48652,-1.61226 -1.86822,-3.91509 -3.07043,-5.11736 -1.84748,-1.84747 -2.66116,-2.18587 -5.25609,-2.18587 -1.6886,0 -3.97287,0.46683 -5.07613,1.03733 -1.27503,0.65939 -2.49174,2.13553 -3.33903,4.0509 -0.96688,2.18579 -1.5263,5.61899 -2.03666,12.49888 -0.49848,6.71886 -0.49807,12.22965 0,18.89465 0.44543,5.94464 1.13187,10.46864 1.86427,12.2861 0.70317,1.74507 1.96412,3.36761 3.20526,4.12437 1.26139,0.76924 3.27441,1.24872 5.24862,1.25023 z m 197.86004,10.21946 c -3.08696,0.15404 -7.0536,0.018 -8.81476,-0.30113 -1.76119,-0.31946 -4.7686,-1.34732 -6.68315,-2.28407 -2.11799,-1.03614 -4.15007,-2.66987 -5.18963,-4.17223 -0.93976,-1.35801 -2.16652,-3.76933 -2.7262,-5.35847 -0.55965,-1.58903 -1.01752,-4.78323 -1.01752,-7.09822 v -4.20894 h 6.84229 6.84227 l 0.43352,3.68857 c 0.23842,2.02862 0.87862,4.54931 1.42269,5.60133 0.54407,1.05211 1.8608,2.36366 2.92609,2.91453 1.06536,0.55088 3.39346,1.00166 5.17361,1.00166 2.27755,0 3.90154,-0.44738 5.48032,-1.50986 1.42389,-0.95819 2.55707,-2.46096 3.10148,-4.113 0.47889,-1.45304 0.68019,-3.65487 0.45578,-4.98347 -0.22119,-1.30915 -0.93976,-3.26429 -1.59683,-4.34472 -0.67312,-1.10686 -2.74569,-2.74095 -4.74769,-3.7431 -1.95419,-0.97823 -5.96052,-2.67395 -8.90302,-3.76833 -2.9425,-1.09419 -6.77288,-2.93208 -8.51201,-4.08399 -1.73911,-1.15192 -3.99814,-3.41287 -5.02008,-5.02433 -1.02196,-1.61147 -2.20481,-4.59989 -2.62848,-6.64078 -0.42371,-2.0411 -0.59765,-5.56096 -0.38651,-7.82191 0.21114,-2.26117 1.03154,-5.61659 1.82317,-7.45679 0.82247,-1.91188 2.63312,-4.39648 4.22524,-5.79795 1.53228,-1.34874 4.38797,-3.03449 6.34594,-3.74609 2.58003,-0.93766 5.28664,-1.29809 9.83285,-1.30946 4.36185,-0.0106 7.42315,0.35874 10.04866,1.21354 2.07668,0.67612 4.93722,2.22345 6.35681,3.43849 1.41951,1.21503 3.19183,3.50879 3.93847,5.09731 0.74666,1.58832 1.56445,4.71645 1.81725,6.95118 l 0.45971,4.06317 h -7.01847 -7.01849 l -0.0144,-1.81578 c -0.008,-0.99875 -0.57699,-3.05472 -1.26446,-4.56886 -0.68749,-1.51417 -1.84998,-3.07417 -2.58331,-3.46662 -0.73333,-0.39245 -2.83384,-0.7136 -4.66781,-0.7136 -2.75127,0 -3.71169,0.337 -5.49094,1.92673 -2.04956,1.83131 -2.15638,2.15776 -2.15638,6.59034 0,4.30403 0.15274,4.81544 1.98091,6.63279 1.16828,1.1614 5.77302,3.62604 11.22512,6.00825 5.08437,2.22146 10.48343,4.98095 11.99799,6.13227 1.51456,1.15122 3.50813,3.24825 4.43022,4.66011 0.92206,1.41174 1.87406,3.88448 2.11555,5.49495 0.24152,1.61045 0.30639,5.22034 0.14422,8.02202 -0.23169,4.00173 -0.70938,5.86744 -2.2281,8.70151 -1.3285,2.47922 -2.93466,4.27694 -5.135,5.74741 -1.76104,1.17694 -4.73241,2.59567 -6.60308,3.15273 -1.87062,0.55717 -5.92683,1.13896 -9.01373,1.29281 z M 532.87026,385.3555 H 512.731 v -36.31666 -36.31676 h 7.26335 7.26333 v 30.37402 30.37393 h 12.87594 12.87593 v 5.94273 5.94274 z m 96.76642,0 c -8.17804,0 -9.22505,-0.12684 -9.53215,-1.15551 -0.18977,-0.63564 -3.92399,-16.80468 -8.29829,-35.93147 -4.37433,-19.12679 -7.95332,-34.9493 -7.95332,-35.16116 0,-0.21187 3.39243,-0.38528 7.53877,-0.38528 h 7.5388 l 0.6547,3.13649 c 0.36009,1.72503 2.66963,13.75906 5.13224,26.7423 2.46261,12.98313 4.64867,23.6058 4.85778,23.6058 0.20913,0 2.76401,-11.95974 5.6775,-26.57717 l 5.2972,-26.57728 7.40335,-0.18666 c 4.07181,-0.10262 7.40335,-0.0339 7.40335,0.15376 0,0.18715 -3.56117,15.87093 -7.91379,34.85254 -4.35254,18.98182 -8.07239,35.18079 -8.26632,35.99801 -0.3448,1.45263 -0.55708,1.48563 -9.53982,1.48563 z m 48.17026,0 h -20.46943 v -36.31666 -36.31676 h 20.13926 20.13927 v 5.94274 5.94273 H 684.74011 671.8642 v 8.58398 8.58395 h 12.21562 12.21559 v 5.94274 5.94274 H 684.07982 671.8642 v 9.90449 9.90458 h 13.20609 13.20604 v 5.94273 5.94274 z m 31.69456,0 h -7.26338 v -36.36751 -36.3675 l 16.34253,0.25725 c 13.44196,0.21157 16.88231,0.46024 19.38401,1.40107 1.67281,0.62925 4.02165,2.09623 5.2196,3.26022 1.19795,1.16388 2.78442,3.45335 3.52552,5.08766 1.03306,2.27809 1.35233,4.37554 1.36844,8.99005 0.0189,5.4085 -0.17973,6.41137 -1.95906,9.89044 -1.71188,3.34746 -2.49686,4.13604 -5.79726,5.82387 l -3.81728,1.95226 3.31973,1.23839 c 1.82583,0.68108 3.9169,1.99761 4.64681,2.92549 0.72993,0.92796 1.63735,2.76707 2.01648,4.08687 0.37915,1.31984 0.96529,7.28669 1.30248,13.25974 0.52866,9.36278 0.80187,11.11512 1.98161,12.71085 l 1.36842,1.85085 h -7.83743 c -7.60501,0 -7.85856,-0.0469 -8.5506,-1.56529 -0.39227,-0.86088 -0.9041,-6.13508 -1.13744,-11.72035 -0.26846,-6.42644 -0.79482,-11.19072 -1.43368,-12.97547 -0.66045,-1.84529 -1.66222,-3.15793 -2.89757,-3.79675 -1.20753,-0.62446 -3.80424,-0.97641 -7.20339,-0.97641 h -5.31522 v 15.51718 15.51709 z m 12.05051,-40.93988 c 3.25241,0 5.51309,-0.37109 7.05136,-1.15548 1.24524,-0.63506 2.86564,-1.97491 3.60081,-2.97745 0.91305,-1.24525 1.4101,-3.12861 1.56833,-5.94275 0.17035,-3.03058 -0.0833,-4.73079 -0.95967,-6.43089 -0.6669,-1.2939 -2.20832,-2.81912 -3.50224,-3.46551 -1.6027,-0.80066 -3.87961,-1.1548 -7.42841,-1.15561 h -5.11737 v 10.56484 10.56486 h 4.78719 z m -81.9661,-39.91597 c -2.4185,0.14938 -5.90256,-0.12066 -7.80505,-0.60482 -1.8901,-0.48108 -4.5017,-1.68704 -5.80367,-2.68012 -1.30191,-0.99308 -3.06664,-2.89569 -3.92166,-4.22827 -0.85496,-1.33248 -2.02177,-3.90831 -2.59281,-5.72417 -0.5711,-1.81587 -1.34554,-5.8194 -1.721,-8.89686 -0.37552,-3.07735 -0.68274,-9.62213 -0.68274,-14.54396 0,-4.9218 0.30252,-11.36148 0.67231,-14.31041 0.36975,-2.94891 1.26922,-7.09669 1.99878,-9.21729 0.72963,-2.12056 2.11969,-5.00006 3.08905,-6.39883 0.96935,-1.3988 2.96694,-3.36585 4.43912,-4.37126 1.47218,-1.00539 3.8652,-2.23629 5.31791,-2.73533 1.53872,-0.52862 5.25953,-0.89864 8.91409,-0.88651 4.28258,0.0144 7.40128,0.40288 9.82933,1.22496 1.95604,0.66228 4.66906,2.20927 6.02891,3.43781 1.35977,1.22848 3.11493,3.7273 3.90028,5.5529 0.78536,1.82559 1.65914,5.2402 1.94183,7.58797 l 0.51388,4.26872 h -6.76831 -6.76835 l -0.75466,-3.63504 c -0.52841,-2.54534 -1.40703,-4.32681 -2.93105,-5.94272 -1.72093,-1.82475 -2.68518,-2.30772 -4.6074,-2.30772 -1.33702,0 -3.27718,0.43762 -4.31145,0.97245 -1.05168,0.54383 -2.49235,2.23631 -3.26861,3.83989 -0.76344,1.57711 -1.71568,4.63085 -2.116,6.78612 -0.45262,2.43669 -0.61459,9.1628 -0.42823,17.78506 0.23972,11.09003 0.5395,14.56597 1.49726,17.36047 0.73629,2.14829 2.05446,4.24642 3.42242,5.44748 1.64926,1.44804 2.88915,1.95346 4.79248,1.95346 1.82814,0 3.17971,-0.51509 4.69307,-1.78855 1.16908,-0.9837 2.67101,-2.98932 3.33769,-4.45699 0.83604,-1.8406 1.21662,-4.2563 1.22667,-7.78595 l 0.0144,-5.11734 h -4.95226 -4.95226 v -5.28243 -5.28243 h 11.88545 11.88547 v 19.47898 19.47894 h -5.2823 -5.28244 v -3.41139 -3.41135 l -2.52675,2.73695 c -1.38972,1.50526 -3.65806,3.20957 -5.04078,3.78736 -1.38274,0.5777 -4.47988,1.17186 -6.88257,1.32022 z M 528.4132,303.33706 512.731,303.5996 v -36.44623 -36.44625 l 15.6822,0.29269 c 12.39746,0.23137 16.27916,0.51947 18.53213,1.37538 1.56745,0.59548 3.72991,1.7093 4.80545,2.47515 1.07553,0.76586 2.75243,2.92634 3.72633,4.8011 1.50603,2.89892 1.77483,4.25059 1.79763,9.03885 0.0228,4.76757 -0.23113,6.13334 -1.65619,8.91409 -1.26426,2.46686 -2.56329,3.81307 -5.22124,5.41075 -2.85718,1.71745 -3.29578,2.19883 -2.27884,2.50069 0.69269,0.20564 2.59649,1.06084 4.23073,1.90046 1.99844,1.02673 3.62003,2.56924 4.95228,4.71086 1.87552,3.01479 1.98093,3.55595 1.98093,10.16917 0,5.7189 -0.25304,7.53198 -1.39595,10.0025 -0.76776,1.65964 -2.51467,4.10403 -3.88204,5.43204 -1.36739,1.3279 -4.15627,3.07356 -6.19754,3.87909 -3.37975,1.33379 -5.11306,1.48814 -19.39368,1.72712 z m 3.63168,-10.43852 c 3.26706,-0.009 5.66442,-0.41276 7.5497,-1.26875 1.74453,-0.79207 3.18828,-2.06415 3.91788,-3.45206 0.75261,-1.43179 1.16051,-3.7068 1.17018,-6.52626 0.0106,-3.12624 -0.34384,-4.93938 -1.27667,-6.52836 -0.71028,-1.21002 -2.3268,-2.75362 -3.59222,-3.43023 -1.67748,-0.89693 -3.68983,-1.2302 -7.42841,-1.2302 h -5.12766 v 11.22512 11.2252 l 4.7872,-0.0139 z m -0.47402,-32.34041 c 2.37225,0 5.33711,-0.42784 6.58858,-0.95073 1.25145,-0.5229 2.87505,-1.9343 3.608,-3.13643 0.85132,-1.3964 1.3335,-3.34196 1.33508,-5.38744 0,-1.76098 -0.46621,-4.18938 -1.03906,-5.3965 -0.59356,-1.25087 -1.98535,-2.64266 -3.2362,-3.23622 -1.35822,-0.64454 -3.98138,-1.04149 -6.88215,-1.04149 h -4.68743 v 9.57439 9.57442 z m 35.65211,42.91973 h -7.48646 l 2.24746,-8.41886 c 1.23613,-4.63039 5.56883,-20.98096 9.62827,-36.33459 l 7.38081,-27.91571 8.92995,0.18295 8.92992,0.18297 9.09291,34.33578 c 5.00104,18.88464 9.2761,35.1629 9.50002,36.17383 l 0.4072,1.838 -7.44462,-0.18725 -7.4446,-0.18726 -1.62662,-7.42847 -1.62663,-7.42835 h -9.77929 -9.77935 l -0.62427,2.47612 c -0.34337,1.3619 -1.11792,4.77896 -1.72126,7.59348 l -1.09695,5.11736 z m 20.78174,-27.07245 c 5.65143,0 7.3313,-0.1955 7.09205,-0.82538 -0.17238,-0.45396 -1.74097,-7.65951 -3.48573,-16.01237 -1.74479,-8.35282 -3.36395,-15.41483 -3.59809,-15.69333 -0.2342,-0.27852 -1.84036,6.25849 -3.56936,14.52668 -1.72899,8.26817 -3.30135,15.70159 -3.49403,16.51872 -0.34753,1.47322 -0.28832,1.48568 7.05516,1.48568 z"
     id="path2707"
     inkscape:label="cta"
     sodipodi:nodetypes="ssssssssssscsssscccsssssssssssssscccsssssssscsssscccssssssscccsssssscccccccccccccscccssssssssssssssscsssssscccccssscssscccsscssscccscsscccccsssscccssscssssssscccccccssscccccccccsssscssscsccsssscssccscssssssssscssssssssssssssssssssscssssscsssscccssssssssssssssssscssssccccsssssssssssssssscccccccccccccssssscsssscssssscccccccccccccccccccccccccccccssssssscssssscsssssscccccsssssccccccsssssssssssscsssscccssssssssssssscccccccccccccssssscccssssssssssssssscsssssscccccssscssscccsccsscccsscccccccssccsssssss" /><text
     xml:space="preserve"
     style="font-style:italic;font-variant:normal;font-weight:200;font-stretch:normal;font-size:49.3889px;line-height:1.25;font-family:'Source Sans 3';-inkscape-font-specification:'Source Sans 3 Ultra-Light Italic';text-align:center;letter-spacing:0px;word-spacing:0px;text-anchor:middle;stroke-width:2.64583"
     x="425.0423"
     y="185.22462"
     id="text4212"
     inkscape:label="customCTA"><tspan
       sodipodi:role="line"
       style="font-style:italic;font-variant:normal;font-weight:200;font-stretch:normal;font-size:42.3333px;font-family:'Source Sans 3';-inkscape-font-specification:'Source Sans 3 Ultra-Light Italic';text-align:center;text-anchor:middle;stroke-width:2.64583"
       x="425.0423"
       y="185.22462"
       id="tspan4264">¡Únete junto a Iker!</tspan></text><g
     id="g746"
     transform="translate(7.6481565,21.166666)"><g
       id="g10"
       transform="matrix(0.0580348,0,0,-0.0580348,61.280331,107.77262)"><path
         d="m 1458.91,441.59 c -32,68 -82.32,118.707 -141.58,139.695 l -6,-6 c 24.02,-28.668 44.09,-75.531 57.58,-133.695 h 90"
         style="fill:#050301;fill-opacity:1;fill-rule:nonzero;stroke:none"
         id="path12" /><path
         d="m 1408.57,65.5352 69.41,-54.5118 h 17.38 V 290.457 H 1387.03 C 1383.51,165.117 1353.46,58.8398 1311.26,8.54688 l 6.1,-6.09766 c 33.93,12.04688 64.92,33.86718 91.21,63.08598"
         style="fill:#050301;fill-opacity:1;fill-rule:nonzero;stroke:none"
         id="path14" /><path
         d="M 38.1055,583.543 H 0 v -14.262 c 21.0391,0 38.1055,-17.058 38.1055,-38.105 V 290.457 52.5859 C 38.1055,31.5391 21.0391,14.4805 0,14.4805 V 0.222656 H 38.1055 151.477 V 290.457 583.543 H 38.1055"
         style="fill:#050301;fill-opacity:1;fill-rule:nonzero;stroke:none"
         id="path16" /><path
         d="M 244.449,16.0547 V 0.222656 H 396.918 V 152.695 h -17.25 C 376.801,78.9258 318.02,19.6758 244.449,16.0547"
         style="fill:#050301;fill-opacity:1;fill-rule:nonzero;stroke:none"
         id="path18" /><path
         d="m 577.215,291.883 c 0,124.332 28.859,231.84 70.789,283.258 -6.297,7.265 0,0 -6.297,7.265 C 541.195,547.68 467.262,430.801 467.262,291.883 c 0,-137.492 72.422,-253.3947 171.351,-289.42987 7.903,8.02347 0,0 7.903,8.02347 -41.125,52.1211 -69.301,158.5464 -69.301,281.4064"
         style="fill:#050301;fill-opacity:1;fill-rule:nonzero;stroke:none"
         id="path20" /><path
         d="m 832.453,291.883 c 0,124.332 -28.859,231.84 -70.793,283.258 6.301,7.265 0,0 6.301,7.265 100.508,-34.726 174.445,-151.605 174.445,-290.523 0,-137.492 -72.422,-253.3947 -171.355,-289.42987 -7.899,8.02347 0,0 -7.899,8.02347 41.121,52.1211 69.301,158.5464 69.301,281.4064"
         style="fill:#050301;fill-opacity:1;fill-rule:nonzero;stroke:none"
         id="path22" /><path
         d="m 1678.53,291.883 c 0,124.332 28.86,231.84 70.79,283.258 -6.29,7.265 0,0 -6.29,7.265 -100.52,-34.726 -174.45,-151.605 -174.45,-290.523 0,-137.492 72.42,-253.3947 171.35,-289.42987 7.9,8.02347 0,0 7.9,8.02347 -41.12,52.1211 -69.3,158.5464 -69.3,281.4064"
         style="fill:#050301;fill-opacity:1;fill-rule:nonzero;stroke:none"
         id="path24" /><path
         d="m 1127.87,291.883 c 0,124.332 28.86,231.84 70.79,283.258 -6.29,7.265 0,0 -6.29,7.265 -100.51,-34.726 -174.45,-151.605 -174.45,-290.523 0,-137.492 72.42,-253.3947 171.35,-289.42987 7.9,8.02347 0,0 7.9,8.02347 -41.12,52.1211 -69.3,158.5464 -69.3,281.4064"
         style="fill:#050301;fill-opacity:1;fill-rule:nonzero;stroke:none"
         id="path26" /><path
         d="m 1933.77,291.883 c 0,124.332 -28.86,231.84 -70.79,283.258 6.3,7.265 0,0 6.3,7.265 100.51,-34.726 174.44,-151.605 174.44,-290.523 0,-137.492 -72.42,-253.3947 -171.35,-289.42987 -7.9,8.02347 0,0 -7.9,8.02347 41.12,52.1211 69.3,158.5464 69.3,281.4064"
         style="fill:#050301;fill-opacity:1;fill-rule:nonzero;stroke:none"
         id="path28" /></g><text
       xml:space="preserve"
       style="font-style:normal;font-variant:normal;font-weight:500;font-stretch:normal;font-size:49.3889px;line-height:1.25;font-family:Didot;-inkscape-font-specification:'Didot Medium';letter-spacing:2.64583px;word-spacing:0px;stroke-width:2.64583"
       x="58.393986"
       y="104.88644"
       id="text4306"><tspan
         sodipodi:role="line"
         id="tspan4304"
         style="font-style:normal;font-variant:normal;font-weight:normal;font-stretch:normal;font-size:49.3889px;font-family:Lavagne;-inkscape-font-specification:Lavagne;stroke-width:2.64583"
         x="58.393986"
         y="104.88644">        EXCLUSIVE  INVITATION</tspan></text></g></svg>
