<?xml version="1.0" encoding="UTF-8" standalone="no"?>
<!-- Created with Inkscape (http://www.inkscape.org/) -->

<svg
   version="1.1"
   id="svg2"
   xml:space="preserve"
   width="272.49332"
   height="77.800003"
   viewBox="0 0 272.49332 77.800003"
   sodipodi:docname="logo.svg"
   inkscape:version="1.1.2 (0a00cf5339, 2022-02-04)"
   xmlns:inkscape="http://www.inkscape.org/namespaces/inkscape"
   xmlns:sodipodi="http://sodipodi.sourceforge.net/DTD/sodipodi-0.dtd"
   xmlns="http://www.w3.org/2000/svg"
   xmlns:svg="http://www.w3.org/2000/svg"><defs
     id="defs6" /><sodipodi:namedview
     id="namedview4"
     pagecolor="#ffffff"
     bordercolor="#666666"
     borderopacity="1.0"
     inkscape:pageshadow="2"
     inkscape:pageopacity="0.0"
     inkscape:pagecheckerboard="0"
     showgrid="false"
     inkscape:zoom="5.0496651"
     inkscape:cx="65.053819"
     inkscape:cy="38.913471"
     inkscape:window-width="1858"
     inkscape:window-height="1016"
     inkscape:window-x="0"
     inkscape:window-y="0"
     inkscape:window-maximized="1"
     inkscape:current-layer="g8" /><g
     id="g8"
     inkscape:groupmode="layer"
     inkscape:label="ink_ext_XXXXXX"
     transform="matrix(1.3333333,0,0,-1.3333333,0,77.8)"><g
       id="g10"
       transform="scale(0.1)"><path
         d="m 1458.91,441.59 c -32,68 -82.32,118.707 -141.58,139.695 l -6,-6 c 24.02,-28.668 44.09,-75.531 57.58,-133.695 h 90"
         style="fill:#050301;fill-opacity:1;fill-rule:nonzero;stroke:none"
         id="path12" /><path
         d="m 1408.57,65.5352 69.41,-54.5118 h 17.38 V 290.457 H 1387.03 C 1383.51,165.117 1353.46,58.8398 1311.26,8.54688 l 6.1,-6.09766 c 33.93,12.04688 64.92,33.86718 91.21,63.08598"
         style="fill:#050301;fill-opacity:1;fill-rule:nonzero;stroke:none"
         id="path14" /><path
         d="M 38.1055,583.543 H 0 v -14.262 c 21.0391,0 38.1055,-17.058 38.1055,-38.105 V 290.457 52.5859 C 38.1055,31.5391 21.0391,14.4805 0,14.4805 V 0.222656 H 38.1055 151.477 V 290.457 583.543 H 38.1055"
         style="fill:#050301;fill-opacity:1;fill-rule:nonzero;stroke:none"
         id="path16" /><path
         d="M 244.449,16.0547 V 0.222656 H 396.918 V 152.695 h -17.25 C 376.801,78.9258 318.02,19.6758 244.449,16.0547"
         style="fill:#050301;fill-opacity:1;fill-rule:nonzero;stroke:none"
         id="path18" /><path
         d="m 577.215,291.883 c 0,124.332 28.859,231.84 70.789,283.258 -6.297,7.265 0,0 -6.297,7.265 C 541.195,547.68 467.262,430.801 467.262,291.883 c 0,-137.492 72.422,-253.3947 171.351,-289.42987 7.903,8.02347 0,0 7.903,8.02347 -41.125,52.1211 -69.301,158.5464 -69.301,281.4064"
         style="fill:#050301;fill-opacity:1;fill-rule:nonzero;stroke:none"
         id="path20" /><path
         d="m 832.453,291.883 c 0,124.332 -28.859,231.84 -70.793,283.258 6.301,7.265 0,0 6.301,7.265 100.508,-34.726 174.445,-151.605 174.445,-290.523 0,-137.492 -72.422,-253.3947 -171.355,-289.42987 -7.899,8.02347 0,0 -7.899,8.02347 41.121,52.1211 69.301,158.5464 69.301,281.4064"
         style="fill:#050301;fill-opacity:1;fill-rule:nonzero;stroke:none"
         id="path22" /><path
         d="m 1678.53,291.883 c 0,124.332 28.86,231.84 70.79,283.258 -6.29,7.265 0,0 -6.29,7.265 -100.52,-34.726 -174.45,-151.605 -174.45,-290.523 0,-137.492 72.42,-253.3947 171.35,-289.42987 7.9,8.02347 0,0 7.9,8.02347 -41.12,52.1211 -69.3,158.5464 -69.3,281.4064"
         style="fill:#050301;fill-opacity:1;fill-rule:nonzero;stroke:none"
         id="path24" /><path
         d="m 1127.87,291.883 c 0,124.332 28.86,231.84 70.79,283.258 -6.29,7.265 0,0 -6.29,7.265 -100.51,-34.726 -174.45,-151.605 -174.45,-290.523 0,-137.492 72.42,-253.3947 171.35,-289.42987 7.9,8.02347 0,0 7.9,8.02347 -41.12,52.1211 -69.3,158.5464 -69.3,281.4064"
         style="fill:#050301;fill-opacity:1;fill-rule:nonzero;stroke:none"
         id="path26" /><path
         d="m 1933.77,291.883 c 0,124.332 -28.86,231.84 -70.79,283.258 6.3,7.265 0,0 6.3,7.265 100.51,-34.726 174.44,-151.605 174.44,-290.523 0,-137.492 -72.42,-253.3947 -171.35,-289.42987 -7.9,8.02347 0,0 -7.9,8.02347 41.12,52.1211 69.3,158.5464 69.3,281.4064"
         style="fill:#050301;fill-opacity:1;fill-rule:nonzero;stroke:none"
         id="path28" /></g></g></svg>
