<?xml version="1.0" encoding="UTF-8" standalone="no"?>
<!-- Created with Inkscape (http://www.inkscape.org/) -->

<svg
   version="1.1"
   id="svg2"
   xml:space="preserve"
   width="453.28"
   height="77.773331"
   viewBox="0 0 453.28 77.773331"
   sodipodi:docname="Logo_Claim_Horizontal.svg"
   inkscape:version="1.1.2 (0a00cf5339, 2022-02-04)"
   xmlns:inkscape="http://www.inkscape.org/namespaces/inkscape"
   xmlns:sodipodi="http://sodipodi.sourceforge.net/DTD/sodipodi-0.dtd"
   xmlns="http://www.w3.org/2000/svg"
   xmlns:svg="http://www.w3.org/2000/svg"><defs
     id="defs6" /><sodipodi:namedview
     id="namedview4"
     pagecolor="#ffffff"
     bordercolor="#666666"
     borderopacity="1.0"
     inkscape:pageshadow="2"
     inkscape:pageopacity="0.0"
     inkscape:pagecheckerboard="0"
     showgrid="false"
     inkscape:zoom="3.0356513"
     inkscape:cx="226.80471"
     inkscape:cy="39.036105"
     inkscape:window-width="1858"
     inkscape:window-height="1016"
     inkscape:window-x="0"
     inkscape:window-y="0"
     inkscape:window-maximized="1"
     inkscape:current-layer="g8" /><g
     id="g8"
     inkscape:groupmode="layer"
     inkscape:label="ink_ext_XXXXXX"
     transform="matrix(1.3333333,0,0,-1.3333333,0,77.773333)"><g
       id="g10"
       transform="scale(0.1)"><path
         d="M 1192.37,582.184 C 1091.86,547.457 1017.92,430.578 1017.92,291.66 c 0,-137.492 72.42,-253.3905 171.35,-289.42562 7.9,8.01952 0,0 7.9,8.01952 -41.12,52.1211 -69.3,158.5511 -69.3,281.4061 0,124.332 28.86,231.844 70.79,283.262 -6.29,7.262 0,0 -6.29,7.262 z m 676.91,0 c -6.3,-7.262 0,0 -6.3,-7.262 41.93,-51.418 70.79,-158.93 70.79,-283.262 0,-122.855 -28.18,-229.285 -69.3,-281.4061 7.9,-8.01952 0,0 7.9,-8.01952 98.93,36.03512 171.35,151.93362 171.35,289.42562 0,138.918 -73.93,255.797 -174.44,290.524 z m -126.25,0 C 1642.51,547.457 1568.58,430.578 1568.58,291.66 c 0,-137.492 72.42,-253.3905 171.35,-289.42562 7.9,8.01952 0,0 7.9,8.01952 -41.12,52.1211 -69.3,158.5511 -69.3,281.4061 0,124.332 28.86,231.844 70.79,283.262 -6.29,7.262 0,0 -6.29,7.262 z m -975.069,0 c -6.297,-7.262 0,0 -6.297,-7.262 41.93,-51.418 70.789,-158.93 70.789,-283.262 0,-122.855 -28.18,-229.285 -69.301,-281.4061 7.899,-8.01952 0,0 7.899,-8.01952 C 869.984,38.2695 942.406,154.168 942.406,291.66 c 0,138.918 -73.937,255.797 -174.445,290.524 z M 1311.26,8.32422 l 6.1,-6.09375 c 33.93,12.04293 64.92,33.86333 91.21,63.08593 l 69.41,-54.5117 h 17.38 V 290.238 H 1387.03 C 1383.51,164.895 1353.46,58.6211 1311.26,8.32422 Z M 1458.91,441.371 c -32,68 -82.32,118.707 -141.58,139.695 l -6,-6.003 c 24.02,-28.665 44.09,-75.528 57.58,-133.692 z M 641.707,582.184 C 541.195,547.457 467.262,430.578 467.262,291.66 c 0,-137.492 72.422,-253.3905 171.351,-289.42562 7.903,8.01952 0,0 7.903,8.01952 -41.125,52.1211 -69.301,158.5511 -69.301,281.4061 0,124.332 28.859,231.844 70.789,283.262 -6.297,7.262 0,0 -6.297,7.262 z M 0,583.32 v -14.261 c 21.0391,0 38.1055,-17.055 38.1055,-38.102 V 290.238 52.3633 C 38.1055,31.3164 21.0391,14.2617 0,14.2617 V 0 H 38.1055 151.477 V 290.238 583.32 H 38.1055 Z M 244.449,15.832 V 0 h 152.469 v 152.473 h -17.25 C 376.801,78.707 318.02,19.4531 244.449,15.832"
         style="fill:#050301;fill-opacity:1;fill-rule:nonzero;stroke:none"
         id="path12" /><path
         d="m 2528.42,484.137 c -3.64,-20.25 -10.93,-41.5 -41.7,-41.5 -40.89,0 -46.96,43.117 -46.96,69.84 0,18.418 2.83,70.843 47.57,70.843 33.2,0 39.47,-28.746 41.9,-41.086 l -15.58,-3.847 c -2.64,13.156 -6.29,31.176 -25.91,31.176 -29.76,0 -30.57,-43.329 -30.57,-56.688 0,-18.824 3.03,-56.473 30.57,-56.473 15.17,0 21.04,8.098 25.91,31.371 l 14.77,-3.636"
         style="fill:#171315;fill-opacity:1;fill-rule:nonzero;stroke:none"
         id="path14" /><path
         d="M 2597.29,580.484 V 445.469 h -16.39 v 135.015 h 16.39"
         style="fill:#171315;fill-opacity:1;fill-rule:nonzero;stroke:none"
         id="path16" /><path
         d="m 2674.64,566.926 v -48.988 h 20.44 c 19.03,0 26.31,11.339 26.31,25.91 0,19.437 -14.97,23.078 -25.1,23.078 z m 22.86,13.558 c 2.23,0 17.83,-0.199 27.33,-7.484 6.48,-4.855 12.96,-14.578 12.96,-29.348 0,-24.496 -16.4,-32.593 -22.27,-35.429 l 25.31,-62.754 h -17.61 l -22.67,58.91 h -25.91 v -58.91 h -16.4 v 135.015 h 39.26"
         style="fill:#171315;fill-opacity:1;fill-rule:nonzero;stroke:none"
         id="path18" /><path
         d="m 2877.51,484.137 c -3.64,-20.25 -10.93,-41.5 -41.7,-41.5 -40.89,0 -46.96,43.117 -46.96,69.84 0,18.418 2.83,70.843 47.57,70.843 33.2,0 39.47,-28.746 41.9,-41.086 l -15.58,-3.847 c -2.64,13.156 -6.29,31.176 -25.91,31.176 -29.76,0 -30.57,-43.329 -30.57,-56.688 0,-18.824 3.03,-56.473 30.57,-56.473 15.17,0 21.04,8.098 25.91,31.371 l 14.77,-3.636"
         style="fill:#171315;fill-opacity:1;fill-rule:nonzero;stroke:none"
         id="path20" /><path
         d="m 2946.38,580.484 v -89.269 c 0,-17.813 0,-34.813 24.69,-34.813 25.51,0 25.51,18.012 25.51,35.625 v 88.457 h 15.38 V 492.84 c 0,-20.242 0,-50.203 -41.49,-50.203 -39.47,0 -40.48,28.336 -40.48,48.578 v 89.269 h 16.39"
         style="fill:#171315;fill-opacity:1;fill-rule:nonzero;stroke:none"
         id="path22" /><path
         d="M 3089.14,580.484 V 459.031 h 51.2 v -13.562 h -67.6 v 135.015 h 16.4"
         style="fill:#171315;fill-opacity:1;fill-rule:nonzero;stroke:none"
         id="path24" /><path
         d="m 3236.94,497.289 -16.8,67.207 -17.01,-67.207 z m -6.07,83.195 36.03,-135.015 h -16.59 l -9.93,38.668 h -40.48 l -9.72,-38.668 h -16.6 l 37.86,135.015 h 19.43"
         style="fill:#171315;fill-opacity:1;fill-rule:nonzero;stroke:none"
         id="path26" /><path
         d="m 3333.35,566.926 v -48.988 h 20.44 c 19.03,0 26.31,11.339 26.31,25.91 0,19.437 -14.97,23.078 -25.09,23.078 z m 22.86,13.558 c 2.24,0 17.83,-0.199 27.33,-7.484 6.49,-4.855 12.96,-14.578 12.96,-29.348 0,-24.496 -16.4,-32.593 -22.27,-35.429 l 25.31,-62.754 h -17.61 l -22.67,58.91 h -25.91 v -58.91 h -16.4 v 135.015 h 39.26"
         style="fill:#171315;fill-opacity:1;fill-rule:nonzero;stroke:none"
         id="path28" /><path
         d="M 2461.42,360.281 V 238.824 h 51.21 v -13.558 h -67.61 v 135.015 h 16.4"
         style="fill:#171315;fill-opacity:1;fill-rule:nonzero;stroke:none"
         id="path30" /><path
         d="m 2573.2,360.281 v -89.269 c 0,-17.817 0,-34.817 24.69,-34.817 25.5,0 25.5,18.012 25.5,35.625 v 88.461 h 15.39 v -87.644 c 0,-20.242 0,-50.207 -41.5,-50.207 -39.47,0 -40.48,28.34 -40.48,48.582 v 89.269 h 16.4"
         style="fill:#171315;fill-opacity:1;fill-rule:nonzero;stroke:none"
         id="path32" /><path
         d="m 2706.63,360.281 22.07,-49.593 25.3,49.593 h 14.57 l -30.76,-61.539 35.22,-73.476 H 2754 l -25.71,57.894 -28.94,-57.894 h -15.39 l 35.22,70.445 -30.56,64.57 h 18.01"
         style="fill:#171315;fill-opacity:1;fill-rule:nonzero;stroke:none"
         id="path34" /><path
         d="m 2834.61,360.281 v -89.269 c 0,-17.817 0,-34.817 24.7,-34.817 25.5,0 25.5,18.012 25.5,35.625 v 88.461 h 15.39 v -87.644 c 0,-20.242 0,-50.207 -41.5,-50.207 -39.47,0 -40.48,28.34 -40.48,48.582 v 89.269 h 16.39"
         style="fill:#171315;fill-opacity:1;fill-rule:nonzero;stroke:none"
         id="path36" /><path
         d="m 2977.38,346.719 v -48.985 h 20.44 c 19.03,0 26.31,11.336 26.31,25.911 0,19.437 -14.97,23.074 -25.1,23.074 z m 22.86,13.562 c 2.23,0 17.82,-0.199 27.33,-7.484 6.48,-4.859 12.96,-14.582 12.96,-29.352 0,-24.492 -16.4,-32.59 -22.27,-35.425 l 25.31,-62.754 h -17.61 l -22.67,58.906 h -25.91 v -58.906 h -16.4 v 135.015 h 39.26"
         style="fill:#171315;fill-opacity:1;fill-rule:nonzero;stroke:none"
         id="path38" /><path
         d="m 3094.21,360.281 29.56,-62.14 29.14,62.14 h 14.99 l -37.25,-77.933 v -57.082 h -16.4 v 57.082 l -37.45,77.933 h 17.41"
         style="fill:#171315;fill-opacity:1;fill-rule:nonzero;stroke:none"
         id="path40" /><path
         d="m 2528.42,43.7344 c -3.64,-20.25 -10.93,-41.50002 -41.7,-41.50002 -40.89,0 -46.96,43.11722 -46.96,69.83982 0,18.418 2.83,70.8438 47.57,70.8438 33.2,0 39.47,-28.746 41.9,-41.086 l -15.58,-3.8476 c -2.64,13.1566 -6.29,31.1756 -25.91,31.1756 -29.76,0 -30.57,-43.328 -30.57,-56.6873 0,-18.8243 3.03,-56.4727 30.57,-56.4727 15.17,0 21.04,8.0977 25.91,31.375 l 14.77,-3.6406"
         style="fill:#171315;fill-opacity:1;fill-rule:nonzero;stroke:none"
         id="path42" /><path
         d="M 2597.29,140.086 V 18.6289 h 51.21 V 5.06641 h -67.6 V 140.086 h 16.39"
         style="fill:#171315;fill-opacity:1;fill-rule:nonzero;stroke:none"
         id="path44" /><path
         d="m 2712.09,114.984 c -5.86,-11.339 -7.69,-28.1402 -7.69,-42.5113 0,-15.1758 2.02,-31.375 7.69,-42.0977 5.27,-10.1211 12.15,-14.582 23.68,-14.582 11.75,0 18.22,5.6718 22.88,14.375 6.08,11.3359 7.69,28.3398 7.69,42.3047 0,15.5898 -2.02,31.7893 -7.69,42.3123 -4.45,8.496 -10.53,14.574 -23.27,14.574 -11.75,0 -18.43,-5.265 -23.29,-14.375 z m 71.26,-42.5113 c 0,-29.5508 -7.29,-70.23832 -47.58,-70.23832 -41.9,0 -48.37,43.31642 -48.37,70.23832 0,28.3473 7.08,70.4453 48.37,70.4453 40.09,0 47.58,-40.281 47.58,-70.4453"
         style="fill:#171315;fill-opacity:1;fill-rule:nonzero;stroke:none"
         id="path46" /><path
         d="m 2901.82,105.063 c -3.65,10.933 -8.5,24.097 -27.13,24.097 -18.42,0 -22.47,-13.976 -22.47,-21.055 0,-14.1714 11.14,-18.6245 29.76,-25.7105 15.79,-6.0664 38.46,-14.7812 38.46,-40.6914 0,-16.8008 -11.33,-39.46872 -43.11,-39.46872 -11.54,0 -24.7,3.4375 -33.21,11.33592 -9.51,8.7031 -11.93,19.6406 -13.35,26.9219 l 14.98,4.2539 C 2847.77,35.8359 2852.43,16 2877.73,16 c 20.24,0 25.71,14.168 25.71,23.0781 0,15.9883 -13.77,21.8555 -26.52,26.7227 -15.59,6.0664 -21.87,8.4961 -28.94,14.7695 -7.09,6.2735 -11.75,16.6016 -11.75,26.7227 0,16.395 11.94,35.625 39.88,35.625 30.36,0 37.45,-23.879 40.28,-33.602 l -14.57,-4.253"
         style="fill:#171315;fill-opacity:1;fill-rule:nonzero;stroke:none"
         id="path48" /><path
         d="m 3048.22,140.086 v -13.563 h -57.09 V 81.7891 h 44.94 V 68.2305 h -44.94 V 18.6289 h 58.71 V 5.06641 h -75.1 V 140.086 h 73.48"
         style="fill:#171315;fill-opacity:1;fill-rule:nonzero;stroke:none"
         id="path50" /><path
         d="m 3162.82,140.086 v -13.762 h -32.39 V 5.06641 h -16.39 V 126.324 h -32.19 v 13.762 h 80.97"
         style="fill:#171315;fill-opacity:1;fill-rule:nonzero;stroke:none"
         id="path52" /></g></g></svg>
