<?xml version="1.0" encoding="UTF-8" standalone="no"?>
<!-- Created with Inkscape (http://www.inkscape.org/) -->

<svg
   version="1.1"
   id="svg2"
   xml:space="preserve"
   width="403.05554"
   height="85.555969"
   viewBox="0 0 403.05554 85.555969"
   sodipodi:docname="web_mock.svg"
   inkscape:version="1.2 (1:1.2.1+202207142221+cd75a1ee6d)"
   xmlns:inkscape="http://www.inkscape.org/namespaces/inkscape"
   xmlns:sodipodi="http://sodipodi.sourceforge.net/DTD/sodipodi-0.dtd"
   xmlns="http://www.w3.org/2000/svg"
   xmlns:svg="http://www.w3.org/2000/svg"><defs
     id="defs6" /><sodipodi:namedview
     id="namedview4"
     pagecolor="#ffffff"
     bordercolor="#666666"
     borderopacity="1.0"
     inkscape:pageshadow="2"
     inkscape:pageopacity="0.0"
     inkscape:pagecheckerboard="0"
     showgrid="false"
     height="4042px"
     inkscape:zoom="0.86061443"
     inkscape:cx="1448.9648"
     inkscape:cy="1057.9651"
     inkscape:window-width="3376"
     inkscape:window-height="1376"
     inkscape:window-x="0"
     inkscape:window-y="0"
     inkscape:window-maximized="1"
     inkscape:current-layer="layer5"
     inkscape:showpageshadow="2"
     inkscape:deskcolor="#d1d1d1"
     showguides="true" /><g
     inkscape:groupmode="layer"
     id="layer5"
     inkscape:label="main"
     transform="translate(-1798.9532,-586.23669)"><path
       style="fill:#000000;stroke-width:0.615764"
       d="m 1958.1213,667.49138 -4.3067,-4.30666 -5.3327,0.6523 c -13.1107,1.6037 -22.6626,-2.47911 -26.7652,-11.44031 -3.1522,-6.88536 -4.5729,-22.98664 -3.353,-38.00071 1.3391,-16.48074 5.5121,-23.76473 15.4444,-26.95841 3.6177,-1.16323 5.2777,-1.33021 11.2047,-1.12709 5.8656,0.20102 7.4937,0.48717 10.3725,1.82303 6.4126,2.97566 9.9878,7.47233 11.9684,15.05296 1.5671,5.99801 2.3075,20.22427 1.5867,30.48573 -0.7705,10.96878 -1.473,14.57466 -3.7374,19.18455 l -1.736,3.53412 4.104,3.77109 4.104,3.77109 -4.3104,3.9271 c -2.3707,2.1599 -4.4512,3.92952 -4.6235,3.93248 -0.1723,0.003 -2.2512,-1.93261 -4.6198,-4.30127 z m -9.7162,-15.37593 c 4.4633,-2.72145 5.6902,-8.45759 5.7084,-26.68962 0.017,-17.43249 -1.0688,-23.26582 -4.9386,-26.52209 -1.5933,-1.34062 -2.5295,-1.6131 -5.543,-1.6131 -3.1783,0 -3.8948,0.23613 -5.8043,1.91266 -3.8616,3.39058 -4.33,6.21395 -4.33,26.10458 0,15.09064 0.1411,17.66385 1.131,20.62808 1.1859,3.55102 2.9549,5.94477 5.0267,6.80171 2.2872,0.94607 6.6913,0.63289 8.7498,-0.62222 z m -86.7428,11.66759 c -9.9617,-1.5652 -15.904,-7.88403 -18.0319,-19.17449 -2.1267,-11.2838 -1.6759,-34.30221 0.8295,-42.35183 2.5215,-8.10167 6.6295,-12.57481 13.6093,-14.81913 3.6176,-1.16323 5.2777,-1.33021 11.2046,-1.12709 5.8657,0.20102 7.4938,0.48717 10.3726,1.82303 9.2663,4.2999 12.3682,10.69441 13.5748,27.98444 0.7697,11.02989 -0.048,25.49146 -1.7974,31.76846 -2.1332,7.65603 -6.5179,12.63398 -13.0949,14.86658 -3.581,1.2156 -12.1249,1.74363 -16.6666,1.03003 z m 11.0038,-11.66759 c 4.4634,-2.72145 5.6903,-8.45759 5.7085,-26.68962 0.017,-17.43249 -1.0688,-23.26582 -4.9386,-26.52209 -1.5933,-1.34062 -2.5296,-1.6131 -5.543,-1.6131 -3.1783,0 -3.8948,0.23613 -5.8043,1.91266 -3.8617,3.39058 -4.33,6.21395 -4.33,26.10458 0,15.09064 0.1411,17.66385 1.131,20.62808 1.1858,3.55102 2.9549,5.94477 5.0267,6.80171 2.2872,0.94607 6.6913,0.63289 8.7497,-0.62222 z m 118.6224,11.64379 c -10.102,-1.31686 -15.7416,-6.8901 -17.4161,-17.21122 -0.3846,-2.37114 -0.6506,-15.21471 -0.6534,-31.55418 v -27.55542 h 7.6748 7.6748 l 0.1762,30.01848 c 0.1652,28.14505 0.2486,30.13816 1.3372,31.93624 1.6499,2.72518 4.0347,3.93198 7.7702,3.93198 2.7978,0 3.4541,-0.25478 5.2294,-2.03012 1.1166,-1.11657 2.3343,-3.1255 2.706,-4.46429 0.4454,-1.60458 0.6769,-12.14005 0.6792,-30.91322 v -28.47907 h 7.6971 7.697 v 25.70813 c 0,14.13947 -0.2864,28.16334 -0.6301,31.16415 -1.3573,11.84671 -7.2269,18.00262 -18.5698,19.47554 -5.1051,0.66292 -6.0917,0.66058 -11.3663,-0.027 z m 178.8713,0.0238 c -9.9617,-1.5652 -15.904,-7.88403 -18.0319,-19.1745 -2.1267,-11.28379 -1.6758,-34.30221 0.8295,-42.35183 2.5215,-8.10167 6.6295,-12.57481 13.6093,-14.81912 3.6177,-1.16324 5.2777,-1.33022 11.2047,-1.1271 5.8656,0.20103 7.4938,0.48717 10.3726,1.82304 9.2663,4.29989 12.3681,10.6944 13.5747,27.98444 0.7697,11.02989 -0.048,25.49145 -1.7974,31.76846 -2.1331,7.65602 -6.5178,12.63398 -13.0948,14.86658 -3.5811,1.2156 -12.125,1.74363 -16.6667,1.03003 z m 11.0039,-11.6676 c 4.4634,-2.72145 5.6902,-8.45758 5.7084,-26.68961 0.017,-17.4325 -1.0687,-23.26583 -4.9386,-26.52209 -1.5932,-1.34065 -2.5295,-1.61313 -5.543,-1.61313 -3.1782,0 -3.8948,0.23613 -5.8043,1.91266 -3.8616,3.39058 -4.3299,6.21395 -4.3299,26.10458 0,15.09064 0.1411,17.66385 1.1309,20.62808 1.1859,3.55102 2.9549,5.94477 5.0267,6.80171 2.2873,0.94607 6.6913,0.63289 8.7498,-0.62222 z m -382.2104,-26.80759 v -37.86946 h 7.3892 7.3891 v 31.71183 31.71182 h 13.5468 13.5468 v 6.15763 6.15764 h -20.9359 -20.936 z m 229.064,0 v -37.86946 h 7.3892 7.3892 v 37.86946 37.86946 h -7.3892 -7.3892 z m 22.7833,0 v -37.86946 h 20.936 20.9359 v 6.15764 6.15763 h -13.5468 -13.5468 v 8.92858 8.92857 h 12.9311 12.931 v 6.14514 6.14514 l -12.7771,0.16644 -12.7771,0.16643 -0.1688,10.31404 -0.1689,10.31404 h 14.1775 14.1774 v 6.15763 6.15764 h -21.5517 -21.5517 z m 46.798,-0.0356 V 587.3671 l 17.0875,0.22649 c 11.2851,0.14958 17.8662,0.48371 19.381,0.98397 3.9389,1.30089 7.4002,4.39392 9.4059,8.40529 1.7049,3.40972 1.8462,4.19291 1.8332,10.16003 -0.012,5.40072 -0.2454,6.97256 -1.4185,9.54434 -1.8421,4.03839 -3.8647,6.07088 -7.7223,7.75984 l -3.1604,1.38369 1.8473,0.40527 c 2.4281,0.53268 5.2868,2.04737 6.5975,3.49567 2.3117,2.55445 3.0388,5.8054 3.6119,16.14912 0.6902,12.45858 0.881,13.66869 2.4747,15.69468 l 1.26,1.60187 h -8.2587 -8.2586 l -0.778,-1.69335 c -0.4656,-1.01349 -0.9661,-6.15231 -1.2466,-12.79953 -0.5041,-11.94952 -0.9656,-13.78045 -4.0936,-16.24092 -1.4069,-1.10668 -2.4815,-1.28592 -7.7094,-1.28592 h -6.0745 v 16.00985 16.00985 h -7.3892 -7.3892 V 625.2722 Z m 25.6238,-5.28007 c 5.5962,-1.40913 8.4975,-7.1431 6.9986,-13.83153 -1.2715,-5.67373 -4.5099,-7.63846 -12.5903,-7.63846 h -5.2537 v 11.08374 11.08375 h 4.0376 c 2.2207,0 5.2843,-0.31389 6.8078,-0.69753 z"
       id="path522"
       inkscape:label="LO QUIERO" /></g></svg>
