<?xml version="1.0" encoding="UTF-8" standalone="no"?>
<!-- Created with Inkscape (http://www.inkscape.org/) -->

<svg
   version="1.1"
   id="svg2"
   xml:space="preserve"
   width="372.21875"
   height="78.297852"
   viewBox="0 0 372.21875 78.297852"
   sodipodi:docname="web_mock.svg"
   inkscape:version="1.2 (1:1.2.1+202207142221+cd75a1ee6d)"
   xmlns:inkscape="http://www.inkscape.org/namespaces/inkscape"
   xmlns:sodipodi="http://sodipodi.sourceforge.net/DTD/sodipodi-0.dtd"
   xmlns="http://www.w3.org/2000/svg"
   xmlns:svg="http://www.w3.org/2000/svg"><defs
     id="defs6" /><sodipodi:namedview
     id="namedview4"
     pagecolor="#ffffff"
     bordercolor="#666666"
     borderopacity="1.0"
     inkscape:pageshadow="2"
     inkscape:pageopacity="0.0"
     inkscape:pagecheckerboard="0"
     showgrid="false"
     height="4042px"
     inkscape:zoom="0.86061443"
     inkscape:cx="1448.9648"
     inkscape:cy="1057.9651"
     inkscape:window-width="3376"
     inkscape:window-height="1376"
     inkscape:window-x="0"
     inkscape:window-y="0"
     inkscape:window-maximized="1"
     inkscape:current-layer="layer5"
     inkscape:showpageshadow="2"
     inkscape:deskcolor="#d1d1d1"
     showguides="true" /><g
     inkscape:groupmode="layer"
     id="layer5"
     inkscape:label="main"
     transform="translate(-1814.3474,-1337.1572)"><path
       style="display:inline;fill:#ffffff;stroke-width:0.615764"
       d="m 1875.308,1414.8272 c -8.9002,-2.0812 -14.0849,-7.9025 -16.4867,-18.5113 -1.4258,-6.2979 -1.4222,-33.2699 0,-39.5778 1.9843,-8.7689 6.2444,-14.758 12.4501,-17.5031 6.2493,-2.7643 17.8074,-2.7713 24.0397,-0.015 6.0935,2.6955 10.4653,8.8365 12.4289,17.4591 1.4814,6.5053 1.4912,32.6925 0.015,39.2563 -2.1684,9.6392 -6.3667,15.2879 -13.3145,17.9146 -4.3069,1.6283 -14.1931,2.1328 -19.1375,0.9766 z m 13.2615,-11.7681 c 3.6822,-2.4127 5.1976,-10.2257 5.2063,-26.8437 0.011,-21.1463 -2.461,-27.6886 -10.4629,-27.6886 -8.1573,0 -10.4299,6.1039 -10.4299,28.0126 0,18.102 1.4684,24.5746 6.1196,26.9738 2.605,1.3437 7.1525,1.1279 9.5669,-0.4541 z m 208.8656,11.9506 c -11.9783,-3.0251 -16.0252,-12.6691 -16.0139,-38.1624 0.01,-18.3711 1.8415,-26.4911 7.3696,-32.6397 3.5034,-3.8967 7.4993,-5.9723 12.9991,-6.7523 5.3848,-0.7637 13.1572,0.081 17.3525,1.8857 5.9621,2.5648 10.1303,9.2937 10.9066,17.6073 l 0.3632,3.8891 h -7.3945 -7.3945 l -0.3887,-2.8359 c -1.0175,-7.4229 -6.6067,-11.3932 -12.0651,-8.5706 -4.7217,2.4416 -6.3992,9.431 -6.3583,26.4927 0.04,16.6856 1.3045,22.962 5.3969,26.7858 1.2881,1.2036 2.2984,1.5394 4.6315,1.5394 6.0029,0 9.133,-4.3825 9.6801,-13.5534 l 0.3486,-5.8432 h -5.3244 -5.3245 v -5.5419 -5.5418 h 12.6232 12.6231 v 20.3202 20.3202 h -5.8497 -5.8498 v -3.373 -3.3729 l -2.4996,2.7118 c -1.5692,1.7024 -3.5746,3.0885 -5.3879,3.7241 -3.4958,1.2254 -11.2594,1.7149 -14.4435,0.9108 z m 55.5823,-0.1825 c -8.9003,-2.0812 -14.0849,-7.9025 -16.4867,-18.5113 -1.4258,-6.2979 -1.4223,-33.2699 0,-39.5778 1.9844,-8.7689 6.2445,-14.758 12.4502,-17.5031 6.2493,-2.7643 17.8074,-2.7713 24.0396,-0.015 6.0936,2.6955 10.4653,8.8365 12.429,17.4591 1.4814,6.5053 1.4912,32.6925 0.015,39.2563 -2.1684,9.6392 -6.3666,15.2879 -13.3144,17.9146 -4.3069,1.6283 -14.1932,2.1328 -19.1375,0.9766 z m 13.2615,-11.7681 c 3.6822,-2.4127 5.1975,-10.2257 5.2063,-26.8437 0.011,-21.1463 -2.461,-27.6886 -10.4629,-27.6886 -8.1573,0 -10.43,6.1039 -10.43,28.0126 0,18.102 1.4685,24.5746 6.1196,26.9738 2.6051,1.3437 7.1525,1.1279 9.567,-0.4541 z m -351.9315,-26.5197 V 1338.67 h 7.697 7.6971 v 31.7118 31.7118 h 13.5468 13.5468 v 6.1576 6.1577 h -21.2439 -21.2438 z m 129.9261,6.1576 v -31.7118 h -8.3128 -8.3128 v -6.1576 -6.1576 h 24.3226 24.3227 v 6.1576 6.1576 h -8.3128 -8.3128 v 31.7118 31.7119 h -7.6971 -7.697 z m 33.867,-6.1576 V 1338.67 h 21.2438 21.2439 v 6.1576 6.1576 h -13.5468 -13.5468 v 8.9286 8.9286 h 12.6231 12.6232 v 6.4655 6.4655 h -12.6232 -12.6231 v 10.1601 10.1601 h 13.8547 13.8546 v 6.1576 6.1577 h -21.5517 -21.5517 z m 47.4138,0 V 1338.67 l 8.7746,0.01 8.7747,0.01 8.8651,25.0841 c 4.8758,13.7962 9.1014,25.3473 9.3904,25.669 0.2908,0.3239 0.5252,-10.8758 0.5252,-25.0923 V 1338.67 h 6.7734 6.7734 v 37.8695 37.8694 h -8.5764 -8.5765 l -1.1876,-3.2327 c -0.6532,-1.778 -4.7275,-13.3467 -9.0541,-25.7082 -4.3266,-12.3614 -8.1071,-22.7386 -8.401,-23.0603 -0.3028,-0.3315 -0.5344,10.8088 -0.5344,25.7081 v 26.2931 h -6.7734 -6.7734 z"
       id="path1144"
       inkscape:label="LO TENGO" /></g></svg>
