<?xml version="1.0" encoding="UTF-8" standalone="no"?>
<!-- Generator: Adobe Illustrator 19.1.0, SVG Export Plug-In . SVG Version: 6.00 Build 0)  -->

<svg
   version="1.1"
   id="Capa_1"
   x="0px"
   y="0px"
   viewBox="0 0 120.66445 128"
   xml:space="preserve"
   sodipodi:docname="share-svgrepo-edit.svg"
   inkscape:version="1.2 (1:1.2.1+202207142221+cd75a1ee6d)"
   width="120.66445"
   height="128"
   xmlns:inkscape="http://www.inkscape.org/namespaces/inkscape"
   xmlns:sodipodi="http://sodipodi.sourceforge.net/DTD/sodipodi-0.dtd"
   xmlns="http://www.w3.org/2000/svg"
   xmlns:svg="http://www.w3.org/2000/svg"><defs
   id="defs255">
	
</defs><sodipodi:namedview
   id="namedview253"
   pagecolor="#ffffff"
   bordercolor="#666666"
   borderopacity="1.0"
   inkscape:showpageshadow="2"
   inkscape:pageopacity="0.0"
   inkscape:pagecheckerboard="0"
   inkscape:deskcolor="#d1d1d1"
   showgrid="false"
   inkscape:zoom="4.26495"
   inkscape:cx="51.46602"
   inkscape:cy="135.87498"
   inkscape:window-width="1440"
   inkscape:window-height="1328"
   inkscape:window-x="26"
   inkscape:window-y="23"
   inkscape:window-maximized="0"
   inkscape:current-layer="Capa_1" />
<path
   d="m 97.737127,82.218234 c -7.360845,0 -13.924485,3.507696 -18.12309,8.928678 L 44.457372,71.509137 c 0.823776,-2.365037 1.275525,-4.916086 1.275525,-7.546858 0,-2.657345 -0.451749,-5.181821 -1.302099,-7.573431 L 79.560891,36.777646 c 4.172031,5.447556 10.762245,8.981825 18.149661,8.981825 12.595818,0 22.879738,-10.25735 22.879738,-22.879736 C 120.59029,10.25735 110.33295,0 97.710552,0 85.088168,0 74.830818,10.25735 74.830818,22.879735 c 0,2.657345 0.451748,5.208396 1.302099,7.573431 L 41.029398,50.064367 C 36.857367,44.590239 30.267153,41.082544 22.879735,41.082544 10.283923,41.082544 0,51.339893 0,63.962279 c 0,12.622386 10.283923,22.879735 22.906308,22.879735 7.387418,0 13.977632,-3.534268 18.176236,-9.008397 l 35.130093,19.637775 c -0.85035,2.391609 -1.328673,4.969238 -1.328673,7.626588 0,12.5958 10.25735,22.87972 22.879736,22.87972 12.62238,0 22.87973,-10.25735 22.87973,-22.87972 0,-12.622396 -10.28391,-22.879746 -22.906303,-22.879746 z m 0,-75.0168307 c 8.662943,0 15.704903,7.0419627 15.704903,15.7049047 0,8.662943 -7.04196,15.704906 -15.704903,15.704906 -8.662943,0 -15.704906,-7.041963 -15.704906,-15.704906 0,-8.662942 7.068536,-15.7049047 15.704906,-15.7049047 z M 22.906308,79.667184 c -8.662942,0 -15.7049047,-7.041962 -15.7049047,-15.704905 0,-8.662942 7.0419627,-15.704905 15.7049047,-15.704905 8.662943,0 15.704906,7.041963 15.704906,15.704905 0,8.662943 -7.068536,15.704905 -15.704906,15.704905 z M 97.737127,120.7763 c -8.662943,0 -15.704906,-7.04197 -15.704906,-15.7049 0,-8.662946 7.041963,-15.704909 15.704906,-15.704909 8.662943,0 15.704903,7.041963 15.704903,15.704909 0,8.66293 -7.04196,15.7049 -15.704903,15.7049 z"
   id="path218"
   style="stroke-width:0.265734;fill:#eae9e5;fill-opacity:1" />















</svg>
