<?xml version="1.0" encoding="UTF-8" standalone="no"?>
<!-- Generator: Adobe Illustrator 19.0.0, SVG Export Plug-In . SVG Version: 6.00 Build 0)  -->

<svg
   version="1.1"
   id="Capa_1"
   x="0px"
   y="0px"
   viewBox="0 0 58.181818 58.181818"
   xml:space="preserve"
   sodipodi:docname="whatsapp-svgrepo-edit.svg"
   inkscape:version="1.2 (1:1.2.1+202207142221+cd75a1ee6d)"
   width="128"
   height="128"
   xmlns:inkscape="http://www.inkscape.org/namespaces/inkscape"
   xmlns:sodipodi="http://sodipodi.sourceforge.net/DTD/sodipodi-0.dtd"
   xmlns="http://www.w3.org/2000/svg"
   xmlns:svg="http://www.w3.org/2000/svg"><defs
   id="defs43">
	
</defs><sodipodi:namedview
   id="namedview41"
   pagecolor="#ffffff"
   bordercolor="#666666"
   borderopacity="1.0"
   inkscape:showpageshadow="2"
   inkscape:pageopacity="0.0"
   inkscape:pagecheckerboard="0"
   inkscape:deskcolor="#d1d1d1"
   showgrid="false"
   inkscape:zoom="4"
   inkscape:cx="49.25"
   inkscape:cy="211.75"
   inkscape:window-width="1448"
   inkscape:window-height="1513"
   inkscape:window-x="26"
   inkscape:window-y="23"
   inkscape:window-maximized="0"
   inkscape:current-layer="g6" />
<g
   id="g6"
   transform="matrix(1.0885376,0,0,1.0885376,0.05464432,0.05464432)"
   style="fill:#eae9e5;fill-opacity:1">
		<path
   id="path2"
   sodipodi:type="inkscape:offset"
   inkscape:radius="0.11520749"
   inkscape:original="M 26 -0.50195312 C 11.390477 -0.50195312 -0.50195312 11.390477 -0.50195312 26 C -0.50195312 30.904307 0.85380389 35.662959 3.4003906 39.818359 C 2.8895546 41.612376 2.2021777 44.091155 1.625 46.1875 C 1.3275586 47.267826 1.0600303 48.238966 0.8671875 48.943359 C 0.67434471 49.647752 0.5374867 50.146805 0.55078125 50.099609 A 0.50255847 0.50255847 0 0 0 0.55078125 50.103516 C 0.40689212 50.631109 0.56111112 51.199212 0.95703125 51.580078 C 1.3522941 51.960312 1.9209603 52.09499 2.4414062 51.935547 A 0.50255847 0.50255847 0 0 0 2.4433594 51.935547 L 12.554688 48.824219 C 16.620539 51.223034 21.250488 52.501953 26 52.501953 C 40.609523 52.501953 52.501953 40.609523 52.501953 26 C 52.501953 11.390477 40.609523 -0.50195312 26 -0.50195312 z M 26 2.5019531 C 38.960424 2.5019531 49.498047 13.039576 49.498047 26 C 49.498047 38.960424 38.960424 49.498047 26 49.498047 C 21.574584 49.498047 17.267071 48.261662 13.537109 45.923828 C 13.294058 45.771355 13.016255 45.695313 12.738281 45.695312 C 12.592015 45.695313 12.444471 45.715769 12.298828 45.759766 A 0.50255847 0.50255847 0 0 0 12.294922 45.759766 L 4.1757812 48.259766 C 4.8560519 45.780055 5.8443144 42.181928 6.4648438 40.019531 C 6.5849233 39.602255 6.5190007 39.15207 6.2832031 38.787109 C 3.8100263 34.981393 2.5019531 30.560942 2.5019531 26 C 2.5019531 13.039576 13.039576 2.5019531 26 2.5019531 z "
   d="M 26,-0.6171875 C 11.327956,-0.6171875 -0.6171875,11.327956 -0.6171875,26 c 0,4.907621 1.35496257,9.669544 3.8945313,13.832031 -0.5098933,1.791607 -1.1905022,4.242431 -1.7636719,6.324219 -0.2974388,1.080317 -0.56492532,2.051304 -0.75781252,2.755859 -0.0964183,0.352186 -0.17771318,0.654402 -0.234375,0.861329 -0.0283309,0.103463 -0.0504636,0.183162 -0.0644531,0.234374 -0.006995,0.02561 -0.0127253,0.04399 -0.015625,0.05469 -0.00145,0.0054 -0.001146,0.0086 -0.001953,0.01172 -2.0178e-4,7.8e-4 -0.003897,0.0078 -0.003906,0.0078 0,0 0.001923,-7e-6 0.001953,0 0.00243,6.22e-4 0.0833295,0.02241 0.1484375,0.03906 l -0.15039062,-0.02148 c -6.23e-6,0.0016 -6.23e-6,0.0023 0,0.0039 -0.14073013,0.559208 0.0227193,1.157779 0.44140624,1.560546 0.41694918,0.401096 1.01319648,0.542903 1.56445308,0.386719 0.010981,-0.0031 0.02226,-0.0025 0.033203,-0.0059 a 0.11521901,0.11521901 0 0 0 0.00195,0 L 12.541016,48.947266 C 16.613846,51.339817 21.24684,52.617188 26,52.617188 40.672044,52.617188 52.617188,40.672044 52.617188,26 52.617188,11.327956 40.672044,-0.6171875 26,-0.6171875 Z m 0,3.234375 c 12.897977,0 23.382813,10.4848355 23.382812,23.3828125 0,12.897977 -10.484835,23.382813 -23.382812,23.382812 -4.403958,0 -8.690714,-1.230296 -12.402344,-3.55664 -0.26192,-0.164311 -0.56039,-0.246093 -0.859375,-0.246094 -0.145933,10e-7 -0.293449,0.02374 -0.439453,0.06445 -0.01108,0.0031 -0.02214,0.0025 -0.0332,0.0059 a 0.11521901,0.11521901 0 0 0 -0.0039,0 l -7.917969,2.4375 c 0.677904,-2.470823 1.6275838,-5.929393 2.2324219,-8.03711 0.1292685,-0.449207 0.058609,-0.933159 -0.1953125,-1.326172 a 0.11521901,0.11521901 0 0 0 -0.00195,0 C 3.9178265,34.937508 2.6171875,30.538914 2.6171875,26 2.6171875,13.102023 13.102023,2.6171875 26,2.6171875 Z"
   transform="matrix(1.0024057,0,0,1.0024057,0.64205276,0.58250863)"
   style="fill:#eae9e5;fill-opacity:1" />
		<path
   id="path4"
   sodipodi:type="inkscape:offset"
   inkscape:radius="0.46416879"
   inkscape:original="M 16.289062 9.7890625 C 15.637063 9.7435625 14.808187 9.8195312 13.804688 10.019531 C 13.611688 10.058531 13.432969 10.153969 13.292969 10.292969 C 13.049969 10.535969 7.3644063 16.333375 10.066406 23.359375 C 13.032406 31.070375 20.645563 40.032281 30.351562 41.488281 C 31.454563 41.653281 32.487078 41.736328 33.455078 41.736328 C 39.165078 41.736328 42.535375 38.863062 43.484375 33.164062 C 43.555375 32.747062 43.354375 32.331953 42.984375 32.126953 C 41.138375 31.101953 39.566922 30.072266 38.419922 29.322266 C 37.543922 28.750266 36.911266 28.338469 36.447266 28.105469 C 35.150266 27.458469 34.166969 27.914969 33.792969 28.292969 C 33.745969 28.339969 33.703969 28.391312 33.667969 28.445312 C 32.320969 30.466313 30.561875 32.399906 30.046875 32.503906 C 29.451875 32.410906 26.666437 30.826484 23.898438 28.521484 C 21.072437 26.166484 19.294203 23.912953 19.033203 22.376953 C 20.846203 20.510953 21.5 19.336 21.5 18 C 21.5 16.623 18.288031 10.873969 17.707031 10.292969 C 17.415531 10.001969 16.941063 9.8345625 16.289062 9.7890625 z M 16.357422 11.796875 C 17.038422 12.743875 19.396 17.198 19.5 18 C 19.5 18.525 19.328969 19.255969 17.292969 21.292969 C 17.104969 21.479969 17 21.734 17 22 C 17 27.236 28.044 34.5 30 34.5 C 31.701 34.5 33.918641 31.640344 35.181641 29.777344 C 35.254641 29.780344 35.377734 29.806531 35.552734 29.894531 C 35.912734 30.075531 36.537172 30.482047 37.326172 30.998047 C 38.368172 31.679047 39.752719 32.582531 41.386719 33.519531 C 40.644719 37.089531 38.570438 40.701719 30.648438 39.511719 C 20.384438 37.972719 13.919594 27.802625 11.933594 22.640625 C 9.9635937 17.520625 13.595813 12.955828 14.507812 11.923828 C 15.249813 11.797828 16.031422 11.745875 16.357422 11.796875 z "
   d="m 16.322266,9.3261719 c -0.715047,-0.0499 -1.57797,0.033109 -2.607422,0.2382812 a 0.4642152,0.4642152 0 0 0 -0.002,0 c -0.282575,0.057101 -0.54132,0.195126 -0.746094,0.3984375 a 0.4642152,0.4642152 0 0 0 -0.002,0.00195 C 12.818166,10.111521 11.305495,11.65144 10.15625,14.083984 9.0070049,16.516529 8.227309,19.870665 9.6328125,23.525391 12.651096,31.372318 20.336077,40.455094 30.283203,41.947266 c 1.122381,0.167899 2.177327,0.253906 3.171875,0.253906 2.932857,0 5.327467,-0.74634 7.101563,-2.261719 1.773698,-1.51504 2.897541,-3.773363 3.384765,-6.697265 v -0.002 c 0.1029,-0.609483 -0.192995,-1.220659 -0.732422,-1.519531 -1.828398,-1.015227 -3.387816,-2.036887 -4.535156,-2.787109 -0.876271,-0.572177 -1.508787,-0.986696 -2.017578,-1.242188 a 0.4642152,0.4642152 0 0 0 -0.002,-0.002 c -1.457336,-0.726982 -2.659898,-0.258231 -3.189453,0.275391 -0.06875,0.06875 -0.130492,0.143003 -0.183594,0.222656 -0.659672,0.989753 -1.426493,1.965207 -2.082031,2.695312 -0.327769,0.365053 -0.627844,0.669911 -0.865235,0.878907 -0.198379,0.17465 -0.312067,0.22432 -0.316406,0.240234 -0.07597,-0.02603 -0.265515,-0.08685 -0.582031,-0.248047 -0.371685,-0.189295 -0.853061,-0.46242 -1.402344,-0.804687 -1.098566,-0.684535 -2.472537,-1.648183 -3.837891,-2.785157 -2.684749,-2.23729 -4.328128,-4.408817 -4.640624,-5.699218 1.65752,-1.755472 2.410156,-3.047838 2.410156,-4.464844 0,-0.524702 -0.228795,-1.122281 -0.546875,-1.882812 -0.318081,-0.760532 -0.74358,-1.635384 -1.185547,-2.484376 -0.441967,-0.848991 -0.900676,-1.670746 -1.289063,-2.322265 -0.194193,-0.32576 -0.369677,-0.608842 -0.519531,-0.833985 C 18.273975,10.25142 18.167499,10.097187 18.035156,9.9648438 17.628419,9.5588046 17.037542,9.3760875 16.322266,9.3261719 Z M 16.09375,12.269531 c 0.326432,0.488109 1.000693,1.66032 1.638672,2.896485 0.341119,0.660962 0.665174,1.317947 0.90625,1.851562 0.23333,0.516469 0.373173,0.950598 0.386719,1.009766 -9.66e-4,0.203701 -0.01013,0.384086 -0.265625,0.816406 -0.26413,0.446936 -0.791953,1.117632 -1.794922,2.121094 -0.275769,0.274301 -0.429688,0.647042 -0.429688,1.035156 0,1.472174 0.751019,2.980677 1.84961,4.441406 1.09859,1.460729 2.564837,2.878921 4.08789,4.13086 1.523053,1.251939 3.102478,2.334204 4.4375,3.111328 0.667511,0.388561 1.272581,0.702201 1.78711,0.921875 0.514528,0.219674 0.914585,0.359375 1.302734,0.359375 1.110614,0 2.130043,-0.821193 3.087891,-1.802735 0.873679,-0.895291 1.640271,-1.950747 2.261718,-2.849609 0.304501,0.15371 0.936809,0.560281 1.722657,1.074219 0.95951,0.627089 2.280656,1.470463 3.759765,2.333984 -0.374179,1.619532 -1.011933,3.168188 -2.40039,4.208985 -1.476084,1.106481 -3.827956,1.706914 -7.714844,1.123046 -4.997854,-0.749386 -9.090659,-3.605709 -12.189453,-6.933593 -3.098795,-3.327884 -5.191082,-7.125719 -6.160156,-9.644532 -0.934065,-2.42762 -0.54297,-4.713734 0.203124,-6.550781 0.707609,-1.742285 1.705274,-3.004808 2.179688,-3.554687 0.573025,-0.08195 1.102698,-0.109641 1.34375,-0.09961 z"
   style="fill:#eae9e5;fill-opacity:1" />
	</g>















</svg>
