<?xml version="1.0" encoding="UTF-8" standalone="no"?>
<!-- Generator: Adobe Illustrator 18.0.0, SVG Export Plug-In . SVG Version: 6.00 Build 0)  -->

<svg
   version="1.1"
   id="Capa_1"
   x="0px"
   y="0px"
   viewBox="0 0 60.002 60.002"
   style="enable-background:new 0 0 60.002 60.002;"
   xml:space="preserve"
   sodipodi:docname="bulb.svg"
   inkscape:version="1.1.2 (08b2f3d93c, 2022-04-05)"
   xmlns:inkscape="http://www.inkscape.org/namespaces/inkscape"
   xmlns:sodipodi="http://sodipodi.sourceforge.net/DTD/sodipodi-0.dtd"
   xmlns="http://www.w3.org/2000/svg"
   xmlns:svg="http://www.w3.org/2000/svg"><defs
   id="defs41" /><sodipodi:namedview
   id="namedview39"
   pagecolor="#ffffff"
   bordercolor="#666666"
   borderopacity="1.0"
   inkscape:pageshadow="2"
   inkscape:pageopacity="0.0"
   inkscape:pagecheckerboard="0"
   showgrid="false"
   inkscape:zoom="16"
   inkscape:cx="50.96875"
   inkscape:cy="32.90625"
   inkscape:window-width="3382"
   inkscape:window-height="1376"
   inkscape:window-x="1498"
   inkscape:window-y="671"
   inkscape:window-maximized="1"
   inkscape:current-layer="g6" />
<g
   id="g6">
	<path
   d="M43.669,5.224c-4.401-3.94-10.081-5.748-16.008-5.092C18.24,1.177,10.655,8.777,9.626,18.205   c-0.699,6.407,1.553,12.626,6.179,17.062c2.984,2.861,4.696,6.799,4.696,10.803v1.933v2v2v4h2.5l3,4h7l3-4h2.5v-4v-2v-2v-1   c0-4.218,1.862-8.29,5.108-11.173c4.38-3.889,6.892-9.476,6.892-15.327C50.501,14.679,48.011,9.109,43.669,5.224z M32.001,58.002   h-5l-1.5-2h8L32.001,58.002z M36.501,54.002h-14v-2h14V54.002z M36.501,50.002h-14v-2h4h6h4V50.002z M28.501,39.002h2v7h-2V39.002z    M42.281,34.333c-3.417,3.034-5.479,7.242-5.75,11.669h-4.031v-8c0-7.383,1.57-10,6-10c0.552,0,1-0.447,1-1s-0.448-1-1-1   c-7.37,0-7.949,6.871-7.995,11h-2.011c-0.046-4.129-0.625-11-7.995-11c-0.552,0-1,0.447-1,1s0.448,1,1,1c4.43,0,6,2.617,6,10v8h-4   c-0.019-4.522-1.953-8.958-5.312-12.179c-4.174-4.003-6.206-9.616-5.575-15.401C12.542,9.918,19.384,3.063,27.882,2.12   c5.351-0.592,10.481,1.038,14.453,4.593c3.918,3.508,6.166,8.534,6.166,13.789C48.501,25.783,46.234,30.824,42.281,34.333z"
   id="path2" />
	
</g>
<g
   id="g8">
</g>
<g
   id="g10">
</g>
<g
   id="g12">
</g>
<g
   id="g14">
</g>
<g
   id="g16">
</g>
<g
   id="g18">
</g>
<g
   id="g20">
</g>
<g
   id="g22">
</g>
<g
   id="g24">
</g>
<g
   id="g26">
</g>
<g
   id="g28">
</g>
<g
   id="g30">
</g>
<g
   id="g32">
</g>
<g
   id="g34">
</g>
<g
   id="g36">
</g>
</svg>
